<svg xmlns="http://www.w3.org/2000/svg" viewBox="0 0 1597.63 414.15">
  <defs>
    <style>
      .cls-1 {
        fill: #df0814;
      }

      .cls-2 {
        fill: #b31b20;
      }

      .cls-3 {
        fill: #fff;
      }

      .cls-4 {
        fill: #06a13e;
      }

      .cls-5 {
        fill: #f8bd96;
      }
    </style>
  </defs>
  <g id="Capa_2" data-name="Capa 2">
    <g id="Capa_1-2" data-name="Capa 1">
      <g>
        <g>
          <path class="cls-1" d="M168.81,111.22c-5.62-.8-11.28-1.4-16.86-2.44-10.43-2-19.88-6.53-29.21-11.4C110.43,91,97.4,87.49,83.41,88.23c-12.14.64-23.23,4.59-33.52,10.9-19.12,11.72-31.71,28.68-39.42,49.49C4.93,163.57,2.26,179.12,1.05,195,.48,202.5,0,210.09,0,217.66c.05,14.51,2.53,28.76,6.3,42.72a295.3,295.3,0,0,0,9.93,31.42C20.6,302.87,26,313.54,31.3,324.22c2.52,5.08,5.77,9.79,8.69,14.67.2.32.4.63.59.95l-.07,0c2.94,2.57,5.86,5.16,8.81,7.72,4.21,3.66,8.21,7.64,12.72,10.89,7.54,5.42,15.24,10.68,23.19,15.48a147.49,147.49,0,0,0,40.5,17c7.78,1.94,15.75,3.27,23.69,4.43a140.25,140.25,0,0,0,17.14,1.23,76.89,76.89,0,0,0,12.59-.8c8.45-1.22,17-2.33,25.26-4.27a117.45,117.45,0,0,0,34-13.69,129.41,129.41,0,0,0,15.09-10.44c3.18-2.59,6.85-4.62,9.35-8.2,1.82-2.61,4.85-4.34,7-6.77,3.76-4.22,7.2-8.71,10.87-13a238,238,0,0,0,23.45-32.67c4.41-7.43,8.63-15,12.42-22.76A212.46,212.46,0,0,0,332.13,241a145.91,145.91,0,0,0,3.12-16.43c1.09-8.55,2.15-17.14,2.48-25.74a194.86,194.86,0,0,0-.81-22.65,138.54,138.54,0,0,0-2.52-18.28c-1.83-8.51-4.25-16.89-6.46-25.32-.69-2.65-1.52-5.26-2.29-7.9-5.92-5.93-12.21-11.4-19.67-15.35a109.56,109.56,0,0,0-10.07-5.13c-13-5.28-26.57-7.78-40.68-6.35-12.11,1.23-23.62,5.1-35.36,8a173.38,173.38,0,0,1-41.3,5.47,8.58,8.58,0,0,0-.87.1v2.9c1.18,0,2.05.07,2.9,0,4-.39,8.11-.65,12.11-1.28,10.87-1.72,21.72-3.62,32.58-5.42a96.89,96.89,0,0,1,10.52-1.51c3.22-.18,5.42,3,3.7,5.4a30.93,30.93,0,0,1-7.62,7.89c-3,2-6.74,3-10.21,4.25a119.66,119.66,0,0,1-26.71,7c-4.31.56-8.61,1.29-12.94,1.54a118.43,118.43,0,0,1-28.45-1.85,121.15,121.15,0,0,1-37.17-13.26,38.71,38.71,0,0,1-8.14-6.38,2.33,2.33,0,0,1,1-4.13c3-.88,6.08-1.81,9.09-1.7a87.74,87.74,0,0,1,15.07,1.9c8,1.73,15.88,4.09,23.87,5.91,3.69.84,7.51,1.06,11.47,1.58Z"/>
          <path class="cls-2" d="M324.8,123.38c.77,2.63,1.6,5.25,2.3,7.9,2.2,8.43,4.62,16.81,6.45,25.31a138.94,138.94,0,0,1,2.53,18.29,197.09,197.09,0,0,1,.8,22.65c-.32,8.6-1.38,17.19-2.47,25.74a150.53,150.53,0,0,1-3.12,16.43,213.1,213.1,0,0,1-15.54,42.94c-3.79,7.76-8,15.33-12.42,22.76a238,238,0,0,1-23.45,32.67c-3.66,4.3-7.11,8.79-10.86,13-2.16,2.43-5.19,4.16-7,6.77-2.5,3.58-6.17,5.61-9.35,8.2a128.57,128.57,0,0,1-15.09,10.44,117.45,117.45,0,0,1-34,13.69c-8.3,1.94-16.81,3.05-25.26,4.27a76.89,76.89,0,0,1-12.59.8A139.94,139.94,0,0,1,148.58,394c-8-1.16-15.91-2.49-23.7-4.43a147.58,147.58,0,0,1-40.49-17c-8-4.79-15.66-10.05-23.2-15.48-4.51-3.25-8.5-7.22-12.72-10.88l-8.8-7.72c1.44,2.33,2.8,4.72,4.35,7,11.58,16.86,26.18,30.88,41.61,44.1a147.17,147.17,0,0,0,23.44,16.75c14,7.9,28.68,9.08,44.1,4.89,9.52-2.58,19.15-4.89,28.85-6.69,9.44-1.75,18.85-.61,28,2.2a81.4,81.4,0,0,0,31.07,3.46c12.82-1.1,24.18-5.87,33.31-15.09A292.48,292.48,0,0,0,318.71,337a256.45,256.45,0,0,0,27.62-65.75,216.06,216.06,0,0,0,5.73-31.95,203.08,203.08,0,0,0,.39-38.43,193,193,0,0,0-11.67-52.4A76.82,76.82,0,0,0,324.8,123.38Z"/>
          <path class="cls-3" d="M176.28,85c2.77.88,5.51,1.82,8.29,2.62,13.25,3.79,26.51,3.39,39.72-.16,17-4.58,31.76-13.37,45.15-24.57a145.25,145.25,0,0,0,33.47-39.5,78.33,78.33,0,0,0,7.42-17.06c-4.85-.62-9.5-1.29-14.16-1.79-4-.43-8.07-.63-12.1-1a5.7,5.7,0,0,1-2.3-1.08C278-.06,273.87-.92,270,1.2s-8,2-12,2.24c-16.26,1-32,4-46.67,11.45Q181.48,30,174,62.63a25.15,25.15,0,0,1-.82,2.45Q174.72,75,176.28,85Zm94-65L268,17.23c.57-.41,1.34-1.28,1.66-1.14A12.31,12.31,0,0,1,272.09,18Z"/>
          <path class="cls-2" d="M176.28,85q-1.56-10-3.13-19.92c-2.19-9.6-5-19-9.49-27.82-1.84-3.61-5-5.09-8.69-3.49a33.8,33.8,0,0,0-7.55,4.7c-2.49,2-2.46,4.5-.22,7.56,7.62,10.37,12.86,21.91,16.61,34.14A118.23,118.23,0,0,1,169,109.06a17.64,17.64,0,0,1-.18,2.16v3c-4-.52-7.78-.74-11.47-1.58-8-1.82-15.86-4.18-23.87-5.91a87.74,87.74,0,0,0-15.07-1.9c-3-.11-6.14.82-9.09,1.7a2.33,2.33,0,0,0-1,4.13,38.71,38.71,0,0,0,8.14,6.38,121.15,121.15,0,0,0,37.17,13.26A118.43,118.43,0,0,0,182,132.16c4.33-.25,8.63-1,12.94-1.54a119.66,119.66,0,0,0,26.71-7c3.47-1.29,7.21-2.24,10.21-4.25a30.93,30.93,0,0,0,7.62-7.89c1.72-2.44-.48-5.58-3.7-5.4a96.89,96.89,0,0,0-10.52,1.51c-10.86,1.8-21.71,3.7-32.58,5.42-4,.63-8.07.89-12.11,1.28-.85.08-1.72,0-2.9,0v-2.9a5.36,5.36,0,0,1-.35-1.19C177,101.79,176.64,93.4,176.28,85Z"/>
          <path class="cls-2" d="M33.81,338.56l-.6-.94Z"/>
        </g>
        <path class="cls-3" d="M265.17,144.43V269.66A109.11,109.11,0,0,1,260.08,304a64,64,0,0,1-16.67,26.54q-11.57,11.06-30.08,17.09t-45.36,6q-26.85,0-45.13-5.48T93.45,332.53a57.5,57.5,0,0,1-16-24.37,98.51,98.51,0,0,1-4.86-31.86h53.23c0,10.37,3.59,18.59,10.76,24.72s17.63,9.18,31.36,9.18a53.84,53.84,0,0,0,18.86-3,38.26,38.26,0,0,0,13.77-8.57,36.66,36.66,0,0,0,8.45-12.88,43.61,43.61,0,0,0,2.89-16V166.76a168.55,168.55,0,0,0,23.26-7.06l1.62-.54a69.33,69.33,0,0,0,16.62-7.83,61.24,61.24,0,0,0,8.45-6.9Z"/>
        <path class="cls-3" d="M373.42,333.32V144.44H528.11v40.13H422.7v28.34h90.42V253H422.7v40.14H530.26v40.14Z"/>
        <path class="cls-3" d="M550.5,333.32V144.44h48.85l90,115.92V144.44h48.85V333.32H689.34l-90-116.16V333.32Z"/>
        <path class="cls-3" d="M958.05,333.32H909l-13.72-34.24h-81.2l-13.5,34.24H751.51l78.2-188.88h50.14ZM830.14,259H879.2l-20.35-51.47-4.28-22.2-4.08,22.2Z"/>
        <path class="cls-3" d="M1050.2,224.71h96.63V333.32h-25.31a16.34,16.34,0,0,1-16-13.22h0q-9.64,8-24.86,13t-37.92,5a92.65,92.65,0,0,1-31.17-5.43,73.91,73.91,0,0,1-27.43-17.35Q972,303.34,964.5,284.44T957,238.88q0-50.3,25.5-74.73t73.06-24.43q21.42,0,37.81,5.07t27.75,13.7a63.85,63.85,0,0,1,17.67,20.06,65.64,65.64,0,0,1,7.82,24.2h-46.06a17.72,17.72,0,0,0-3.32-8.38,25.75,25.75,0,0,0-8.46-7.32,53.7,53.7,0,0,0-13.82-5.19,82.65,82.65,0,0,0-19.39-2,59.78,59.78,0,0,0-16.39,2.48,40.13,40.13,0,0,0-16,9.09q-7.28,6.62-12.1,18.06t-4.82,29.4q0,18.18,4.82,29.63t12.1,18.06a38.68,38.68,0,0,0,16,9,62.19,62.19,0,0,0,16.39,2.36,91.38,91.38,0,0,0,18.85-1.77,67.94,67.94,0,0,0,14.25-4.48,26.67,26.67,0,0,0,9-6.26,10.79,10.79,0,0,0,3.1-7.08V264.85h-25.67A24.9,24.9,0,0,1,1050.2,240Z"/>
        <path class="cls-3" d="M1348.05,321.14c-1.92-12.58-.84-31.86-2-44.51-1.31-15.16-15.43-20.41-21.1-21.91a49.06,49.06,0,0,0,15.27-12.07q11.92-14.42,11.92-37.3c0-9.91-1.66-18.67-4.94-26.19a45.18,45.18,0,0,0-15.66-19q-10.69-7.69-27.5-11.68t-40.61-4h-92.34V333.33h49.25V266h47.15a29.79,29.79,0,0,1,29.77,29l1.07,38.36h55.43C1350.72,332.13,1349,327.46,1348.05,321.14Zm-47.28-106a15.68,15.68,0,0,1-6.87,6.25,39.77,39.77,0,0,1-12.23,3.43,135.22,135.22,0,0,1-18.2,1.08h-43.09V184.56h43.09q21.4,0,30.43,4.51t9,16.28A20.72,20.72,0,0,1,1300.77,215.15Z"/>
        <path class="cls-3" d="M1597.63,151.1a12.77,12.77,0,1,1-12.69-12.44A12.51,12.51,0,0,1,1597.63,151.1Zm-22.37,0a9.67,9.67,0,0,0,9.68,9.9c5.39.08,9.48-4.38,9.48-9.85a9.59,9.59,0,1,0-19.16-.05Zm7.67,6.42h-2.88V145.11a31.07,31.07,0,0,1,4.79-.38c2.34,0,3.37.38,4.24,1a3.14,3.14,0,0,1-1.31,5.6v.14c1.2.38,1.8,1.36,2.18,3.05a11.52,11.52,0,0,0,.93,3h-3.05a10.18,10.18,0,0,1-1-3c-.22-1.31-1-1.91-2.56-1.91h-1.36Zm.06-7h1.36c1.63,0,2.88-.52,2.88-1.82,0-1.12-.82-1.88-2.67-1.88a8.6,8.6,0,0,0-1.57.14Z"/>
        <g>
          <path class="cls-3" d="M393.34,376.4l-2.4,12.09h21.23l-1.8,8.49H389.31l-3.38,16.65H375.32l9.15-45.75H419l-1.8,8.52Z"/>
          <path class="cls-3" d="M441.89,379.07a23.28,23.28,0,0,1,7.62-1.12l-1.85,9.42c-1.2-.08-2-.14-2.34-.14a11.28,11.28,0,0,0-7.41,2.29c-1.9,1.52-3.1,3.89-3.81,7.13l-3.37,17H420.55l7-35.16h9.69l-.87,4.19A13,13,0,0,1,441.89,379.07Z"/>
          <path class="cls-3" d="M491.09,398.8H464.15c.38,4.79,3.37,7.18,9.09,7.18a15.65,15.65,0,0,0,5.17-.84,13,13,0,0,0,4.24-2.42l4.25,6.72a20.26,20.26,0,0,1-6.69,3.54,27,27,0,0,1-8,1.17,22,22,0,0,1-9.52-1.93,14.26,14.26,0,0,1-6.26-5.5,15.56,15.56,0,0,1-2.18-8.3,20.65,20.65,0,0,1,2.67-10.51,18.81,18.81,0,0,1,7.35-7.32A21.59,21.59,0,0,1,475,378a19.17,19.17,0,0,1,8.82,1.91,13.66,13.66,0,0,1,5.82,5.41,16,16,0,0,1,2.07,8.17A28.7,28.7,0,0,1,491.09,398.8Zm-22.64-11.27a9.86,9.86,0,0,0-3.54,5.34h17.42a6.84,6.84,0,0,0-2.12-5.34,8.22,8.22,0,0,0-5.72-1.93A9.5,9.5,0,0,0,468.45,387.53Z"/>
          <path class="cls-3" d="M503.56,413.14a18.78,18.78,0,0,1-6.37-2.64l3.92-7.4a18.91,18.91,0,0,0,5.6,2.42,23.87,23.87,0,0,0,6.64.93,11.16,11.16,0,0,0,5.12-.9,2.74,2.74,0,0,0,1.74-2.5,2.06,2.06,0,0,0-1.52-1.91,31.47,31.47,0,0,0-4.85-1.22,47.86,47.86,0,0,1-6.26-1.58,10.42,10.42,0,0,1-4.24-2.78,7.35,7.35,0,0,1-1.8-5.25,10.33,10.33,0,0,1,4.9-9.09C509.65,379,514,378,519.23,378a32.69,32.69,0,0,1,7.08.79,21,21,0,0,1,5.87,2.15l-3.64,7.46a19.19,19.19,0,0,0-10.4-2.69,10.46,10.46,0,0,0-5.06,1,2.91,2.91,0,0,0-1.74,2.5,2.14,2.14,0,0,0,1.52,2,29.25,29.25,0,0,0,5.06,1.33A49.82,49.82,0,0,1,524,394a10.28,10.28,0,0,1,4.14,2.69,7.27,7.27,0,0,1,1.74,5.18A10.25,10.25,0,0,1,525,411c-3.32,2.13-7.57,3.19-12.79,3.19A35.54,35.54,0,0,1,503.56,413.14Z"/>
          <path class="cls-3" d="M548,412.19a14.45,14.45,0,0,1-6.26-5.53,15.25,15.25,0,0,1-2.17-8.24,20.49,20.49,0,0,1,2.72-10.48,19.86,19.86,0,0,1,7.67-7.29,22.44,22.44,0,0,1,11-2.7,19.57,19.57,0,0,1,9.69,2.32,14.72,14.72,0,0,1,6.1,6.58l-8.6,4.3a8,8,0,0,0-7.84-4.76,10,10,0,0,0-5.39,1.47,9.82,9.82,0,0,0-3.76,4.08,13.14,13.14,0,0,0-1.36,5.93,7.79,7.79,0,0,0,2.18,5.72,8.28,8.28,0,0,0,6,2.12,9.65,9.65,0,0,0,8.6-4.68l7.51,4.68a17.23,17.23,0,0,1-7,6.23,21.56,21.56,0,0,1-9.75,2.21A21.29,21.29,0,0,1,548,412.19Z"/>
          <path class="cls-3" d="M624.77,378.47l-7,35.16h-9.64l.71-3.78a15.47,15.47,0,0,1-5.22,3.24,18.09,18.09,0,0,1-6.21,1.06c-3.86,0-6.91-1-9.2-3.13s-3.43-5-3.43-8.82a18.76,18.76,0,0,1,.49-4.24l3.81-19.49H599.3l-3.76,18.83a13.16,13.16,0,0,0-.27,2.53c0,3.68,2,5.5,5.93,5.5a9.24,9.24,0,0,0,6.37-2.26,12.53,12.53,0,0,0,3.43-6.75l3.59-17.85Z"/>
          <path class="cls-3" d="M653.45,379.07a23.28,23.28,0,0,1,7.62-1.12l-1.85,9.42c-1.2-.08-2-.14-2.34-.14a11.27,11.27,0,0,0-7.4,2.29c-1.91,1.52-3.1,3.89-3.81,7.13l-3.38,17H632.12l7-35.16h9.69l-.87,4.19A13,13,0,0,1,653.45,379.07Z"/>
          <path class="cls-3" d="M707.77,378.47l-7,35.16h-9.63l.65-3.45a15.56,15.56,0,0,1-10.78,4,15.84,15.84,0,0,1-7.62-1.88,14.35,14.35,0,0,1-5.49-5.47,16.48,16.48,0,0,1-2.07-8.38,21.74,21.74,0,0,1,2.56-10.51,19.52,19.52,0,0,1,7-7.32,19.22,19.22,0,0,1,9.85-2.64q8.09,0,11.43,5.31l.87-4.79Zm-18.29,25.77a10.19,10.19,0,0,0,3.65-4.08,13.2,13.2,0,0,0,1.31-6,7.58,7.58,0,0,0-2.13-5.68,7.94,7.94,0,0,0-5.93-2.1,9.82,9.82,0,0,0-5.33,1.47,10,10,0,0,0-3.7,4.08,13.33,13.33,0,0,0-1.31,6,7.66,7.66,0,0,0,2.12,5.68,8.17,8.17,0,0,0,5.94,2.07A10,10,0,0,0,689.48,404.24Z"/>
          <path class="cls-3" d="M775.75,379l-6.85,34.61h-6l.87-4.24a17,17,0,0,1-5.44,3.43,18.47,18.47,0,0,1-6.75,1.19,17.16,17.16,0,0,1-7.94-1.79,13.16,13.16,0,0,1-5.39-5.17,15.74,15.74,0,0,1-2-8,21.62,21.62,0,0,1,2.5-10.53,19.08,19.08,0,0,1,7-7.24,19.74,19.74,0,0,1,10.07-2.61,17.35,17.35,0,0,1,7.62,1.55,11.33,11.33,0,0,1,4.85,4.65l1.19-5.87Zm-15.89,27.64a12.41,12.41,0,0,0,4.79-5.19,15.6,15.6,0,0,0,1.74-7.57c0-3.1-.87-5.5-2.67-7.18s-4.35-2.56-7.62-2.56a13,13,0,0,0-7,1.88,13.29,13.29,0,0,0-4.85,5.19,16.31,16.31,0,0,0-1.74,7.57,9.49,9.49,0,0,0,2.72,7.16c1.8,1.71,4.36,2.58,7.62,2.58A13.17,13.17,0,0,0,759.86,406.66Z"/>
          <path class="cls-3" d="M814.51,402.58a11.32,11.32,0,0,0-.17,1.83,4.23,4.23,0,0,0,1.15,3.21,4.78,4.78,0,0,0,3.43,1.11,8.19,8.19,0,0,0,5-1.63l1.3,4.76a13.79,13.79,0,0,1-8,2.15,9.46,9.46,0,0,1-6.64-2.31,8.41,8.41,0,0,1-2.51-6.37,12.81,12.81,0,0,1,.28-2.61l3.7-18.56h-5.88l1-5.14h6l1.47-7.6h6.31L819.3,379h9.9l-1,5.14h-9.91Z"/>
          <path class="cls-3" d="M874.54,379l-6.86,34.61h-6l.87-4.43a15.92,15.92,0,0,1-5.49,3.62A19.2,19.2,0,0,1,850.1,414c-3.86,0-6.86-1-9.09-3.05s-3.32-4.92-3.32-8.57a21.16,21.16,0,0,1,.38-4l3.87-19.4h6.26l-3.87,19.45a17.24,17.24,0,0,0-.32,2.94,6.56,6.56,0,0,0,2,5.2c1.31,1.2,3.32,1.8,5.93,1.8a12.19,12.19,0,0,0,8.22-2.81,13.79,13.79,0,0,0,4.41-8.24l3.7-18.34Z"/>
          <path class="cls-3" d="M943.45,379l-6.86,34.61h-6l.87-4.24a17.26,17.26,0,0,1-5.44,3.43,18.51,18.51,0,0,1-6.75,1.19,17.17,17.17,0,0,1-8-1.79,13.22,13.22,0,0,1-5.39-5.17,15.84,15.84,0,0,1-2-8,21.62,21.62,0,0,1,2.51-10.53,19.08,19.08,0,0,1,7-7.24,19.71,19.71,0,0,1,10.07-2.61,17.38,17.38,0,0,1,7.62,1.55,11.25,11.25,0,0,1,4.84,4.65l1.2-5.87Zm-15.9,27.64a12.41,12.41,0,0,0,4.79-5.19,15.6,15.6,0,0,0,1.75-7.57c0-3.1-.87-5.5-2.67-7.18s-4.36-2.56-7.62-2.56a13,13,0,0,0-7,1.88,13.34,13.34,0,0,0-4.84,5.19,16.31,16.31,0,0,0-1.74,7.57A9.45,9.45,0,0,0,913,406c1.79,1.71,4.35,2.58,7.62,2.58A13.11,13.11,0,0,0,927.55,406.66Z"/>
          <path class="cls-3" d="M962.39,365.16h6.31L959,413.63h-6.25Z"/>
          <path class="cls-3" d="M982.85,412.16a14,14,0,0,1-5.71-5.22,14.92,14.92,0,0,1-2-7.87,21.06,21.06,0,0,1,2.61-10.48,18.91,18.91,0,0,1,7.24-7.26,20.73,20.73,0,0,1,10.5-2.64c6.86,0,11.6,2.5,14.26,7.51l-5.28,2.94c-1.85-3.32-5-5-9.41-5a13.2,13.2,0,0,0-11.87,7.07,16.31,16.31,0,0,0-1.74,7.57,9.45,9.45,0,0,0,2.72,7.16c1.8,1.71,4.35,2.58,7.67,2.58a13.66,13.66,0,0,0,5.83-1.25,11.19,11.19,0,0,0,4.52-3.65l4.57,3.27a17.13,17.13,0,0,1-6.48,5.23,20.53,20.53,0,0,1-8.71,1.87A19.22,19.22,0,0,1,982.85,412.16Z"/>
          <path class="cls-3" d="M1056.66,379l-6.86,34.61h-6l.87-4.24a17.15,17.15,0,0,1-5.44,3.43,18.51,18.51,0,0,1-6.75,1.19,17.2,17.2,0,0,1-8-1.79,13.28,13.28,0,0,1-5.39-5.17,15.84,15.84,0,0,1-2-8,21.62,21.62,0,0,1,2.51-10.53,19.08,19.08,0,0,1,7-7.24,19.71,19.71,0,0,1,10.07-2.61,17.35,17.35,0,0,1,7.62,1.55,11.25,11.25,0,0,1,4.84,4.65l1.2-5.87Zm-15.89,27.64a12.53,12.53,0,0,0,4.79-5.19,15.71,15.71,0,0,0,1.74-7.57c0-3.1-.87-5.5-2.67-7.18s-4.35-2.56-7.62-2.56a13,13,0,0,0-7,1.88,13.34,13.34,0,0,0-4.84,5.19,16.31,16.31,0,0,0-1.74,7.57,9.45,9.45,0,0,0,2.72,7.16c1.8,1.71,4.35,2.58,7.62,2.58A13.17,13.17,0,0,0,1040.77,406.66Z"/>
          <path class="cls-3" d="M1099.71,381.68a11,11,0,0,1,3.32,8.49,22.1,22.1,0,0,1-.43,4.06l-3.81,19.4h-6.32l3.87-19.4a16,16,0,0,0,.32-2.89,6.63,6.63,0,0,0-2-5.22c-1.36-1.23-3.37-1.83-6-1.83a12.69,12.69,0,0,0-8.43,2.78q-3.27,2.78-4.41,8.27l-3.65,18.29h-6.26l6.86-34.61h6l-.82,4.43c3.1-3.18,7.29-4.76,12.52-4.76C1094.43,378.69,1097.54,379.67,1099.71,381.68Z"/>
          <path class="cls-3" d="M1122.3,412.16a14,14,0,0,1-5.71-5.22,14.83,14.83,0,0,1-2-7.87,21.06,21.06,0,0,1,2.61-10.48,19.05,19.05,0,0,1,7.24-7.26,20.8,20.8,0,0,1,10.51-2.64c6.86,0,11.59,2.5,14.26,7.51l-5.28,2.94c-1.85-3.32-5-5-9.42-5a13.2,13.2,0,0,0-11.86,7.07,16.18,16.18,0,0,0-1.74,7.57,9.45,9.45,0,0,0,2.72,7.16c1.79,1.71,4.35,2.58,7.67,2.58a13.66,13.66,0,0,0,5.83-1.25,11.09,11.09,0,0,0,4.51-3.65l4.57,3.27a17.18,17.18,0,0,1-6.47,5.23A20.56,20.56,0,0,1,1131,414,19.19,19.19,0,0,1,1122.3,412.16Z"/>
          <path class="cls-3" d="M1162.69,398.28v.38q0,4.86,2.77,7.35c1.8,1.69,4.57,2.53,8.22,2.53a16.51,16.51,0,0,0,6-1.09,13.33,13.33,0,0,0,4.68-2.91l2.67,4.52a17.47,17.47,0,0,1-6.2,3.65,22.78,22.78,0,0,1-7.68,1.3,20,20,0,0,1-8.87-1.82,13.73,13.73,0,0,1-5.72-5.23,15.13,15.13,0,0,1-2-8,21.58,21.58,0,0,1,2.5-10.45,18.26,18.26,0,0,1,7-7.24,19.71,19.71,0,0,1,10.07-2.61q7,0,11.27,4c2.77,2.69,4.19,6.34,4.19,10.94a29,29,0,0,1-.44,4.65Zm5.17-11.75a13,13,0,0,0-4.52,7.18h22.37c.16-3.1-.65-5.5-2.45-7.24a10.36,10.36,0,0,0-7.4-2.56A12.57,12.57,0,0,0,1167.86,386.53Z"/>
          <path class="cls-3" d="M1200.79,412.82a4.21,4.21,0,0,1-1.2-3,4.54,4.54,0,0,1,1.36-3.43,4.37,4.37,0,0,1,3.27-1.36,3.85,3.85,0,0,1,2.93,1.22,4.11,4.11,0,0,1,1.2,3.05,4.43,4.43,0,0,1-1.36,3.35,4.3,4.3,0,0,1-3.21,1.33A4,4,0,0,1,1200.79,412.82Z"/>
        </g>
        <path class="cls-3" d="M1509.84,213.74a5.31,5.31,0,0,1-.65.19,2.18,2.18,0,0,1,.15.39l.54-.31C1509.88,213.93,1509.84,213.81,1509.84,213.74Zm-79.72,4c-2.08-.7-4.21-1.39-6.29-2.12a23,23,0,0,1-5.86-2.9,12.78,12.78,0,0,1-4.17-4.2,5.66,5.66,0,0,0-.31.89c-.27,2.54-.69,5.09-.77,7.63a61.57,61.57,0,0,0,.2,10.34c.27,1.93.42,3.94.77,5.86a41.49,41.49,0,0,0,2.62,8.95,34.81,34.81,0,0,0,4.28,7.33,37.86,37.86,0,0,0,6.21,6.67c.62.5,1.24,1,1.85,1.43a63.19,63.19,0,0,1-2.31-17.7C1426.34,231.52,1427.57,224.11,1430.12,217.75ZM1532.45,203c-.27-2.85-.58-5.7-1.08-8.52a99.55,99.55,0,0,0-3.44-13.81,4.6,4.6,0,0,0-.3-.58c-.93,1.28-1.7,2.55-2.63,3.63a28.36,28.36,0,0,1-8,6.05c-3.74,2-7.56,3.94-11.38,5.79-2.85,1.39-5.75,2.7-8.6,4.13a37.54,37.54,0,0,1,5.86,5.2,42.68,42.68,0,0,1,6.33,9,2.18,2.18,0,0,1,.15.39c3.63,7.13,5.4,15.66,5.4,25.61a68.5,68.5,0,0,1-.92,11.49c.81-.77,1.62-1.54,2.43-2.35a72.47,72.47,0,0,0,4.7-5.52,48.8,48.8,0,0,0,5.33-8.29,58.21,58.21,0,0,0,5.24-15,60.33,60.33,0,0,0,1-8.76A68.73,68.73,0,0,0,1532.45,203Zm0,0c-.27-2.85-.58-5.7-1.08-8.52a99.55,99.55,0,0,0-3.44-13.81,4.6,4.6,0,0,0-.3-.58c-.93,1.28-1.7,2.55-2.63,3.63a28.36,28.36,0,0,1-8,6.05c-3.74,2-7.56,3.94-11.38,5.79-2.85,1.39-5.75,2.7-8.6,4.13a37.54,37.54,0,0,1,5.86,5.2,42.68,42.68,0,0,1,6.33,9,2.18,2.18,0,0,1,.15.39c3.63,7.13,5.4,15.66,5.4,25.61a68.5,68.5,0,0,1-.92,11.49c.81-.77,1.62-1.54,2.43-2.35a72.47,72.47,0,0,0,4.7-5.52,48.8,48.8,0,0,0,5.33-8.29,58.21,58.21,0,0,0,5.24-15,60.33,60.33,0,0,0,1-8.76A68.73,68.73,0,0,0,1532.45,203Zm-102.33,14.74c-2.08-.7-4.21-1.39-6.29-2.12a23,23,0,0,1-5.86-2.9,12.78,12.78,0,0,1-4.17-4.2,5.66,5.66,0,0,0-.31.89c-.27,2.54-.69,5.09-.77,7.63a61.57,61.57,0,0,0,.2,10.34c.27,1.93.42,3.94.77,5.86a41.49,41.49,0,0,0,2.62,8.95,34.81,34.81,0,0,0,4.28,7.33,37.86,37.86,0,0,0,6.21,6.67c.62.5,1.24,1,1.85,1.43a63.19,63.19,0,0,1-2.31-17.7C1426.34,231.52,1427.57,224.11,1430.12,217.75Zm0,0c-2.08-.7-4.21-1.39-6.29-2.12a23,23,0,0,1-5.86-2.9,12.78,12.78,0,0,1-4.17-4.2,5.66,5.66,0,0,0-.31.89c-.27,2.54-.69,5.09-.77,7.63a61.57,61.57,0,0,0,.2,10.34c.27,1.93.42,3.94.77,5.86a41.49,41.49,0,0,0,2.62,8.95,34.81,34.81,0,0,0,4.28,7.33,37.86,37.86,0,0,0,6.21,6.67c.62.5,1.24,1,1.85,1.43a63.19,63.19,0,0,1-2.31-17.7C1426.34,231.52,1427.57,224.11,1430.12,217.75ZM1532.45,203c-.27-2.85-.58-5.7-1.08-8.52a99.55,99.55,0,0,0-3.44-13.81,4.6,4.6,0,0,0-.3-.58c-.93,1.28-1.7,2.55-2.63,3.63a28.36,28.36,0,0,1-8,6.05c-3.74,2-7.56,3.94-11.38,5.79-2.85,1.39-5.75,2.7-8.6,4.13a37.54,37.54,0,0,1,5.86,5.2,42.68,42.68,0,0,1,6.33,9,2.18,2.18,0,0,1,.15.39c3.63,7.13,5.4,15.66,5.4,25.61a68.5,68.5,0,0,1-.92,11.49c.81-.77,1.62-1.54,2.43-2.35a72.47,72.47,0,0,0,4.7-5.52,48.8,48.8,0,0,0,5.33-8.29,58.21,58.21,0,0,0,5.24-15,60.33,60.33,0,0,0,1-8.76A68.73,68.73,0,0,0,1532.45,203Zm0,0c-.27-2.85-.58-5.7-1.08-8.52a99.55,99.55,0,0,0-3.44-13.81,4.6,4.6,0,0,0-.3-.58c-.93,1.28-1.7,2.55-2.63,3.63a28.36,28.36,0,0,1-8,6.05c-3.74,2-7.56,3.94-11.38,5.79-2.85,1.39-5.75,2.7-8.6,4.13a37.54,37.54,0,0,1,5.86,5.2,42.68,42.68,0,0,1,6.33,9,2.18,2.18,0,0,1,.15.39c3.63,7.13,5.4,15.66,5.4,25.61a68.5,68.5,0,0,1-.92,11.49c.81-.77,1.62-1.54,2.43-2.35a72.47,72.47,0,0,0,4.7-5.52,48.8,48.8,0,0,0,5.33-8.29,58.21,58.21,0,0,0,5.24-15,60.33,60.33,0,0,0,1-8.76A68.73,68.73,0,0,0,1532.45,203Zm-108.62,12.62a23,23,0,0,1-5.86-2.9,12.78,12.78,0,0,1-4.17-4.2,5.66,5.66,0,0,0-.31.89c-.27,2.54-.69,5.09-.77,7.63a61.57,61.57,0,0,0,.2,10.34c.27,1.93.42,3.94.77,5.86a41.49,41.49,0,0,0,2.62,8.95,34.81,34.81,0,0,0,4.28,7.33,37.86,37.86,0,0,0,6.21,6.67c.62.5,1.24,1,1.85,1.43a63.19,63.19,0,0,1-2.31-17.7c0-8.41,1.23-15.82,3.78-22.18C1428,217.05,1425.91,216.36,1423.83,215.63Zm132.11-25a91.72,91.72,0,0,0-35.6-34q-22.52-12.15-49.8-12.15a103.24,103.24,0,0,0-49.64,12.15,92.2,92.2,0,0,0-35.91,34q-13.18,21.82-13.23,49.34T1385,289.26a93.37,93.37,0,0,0,35.91,34.13,106.24,106.24,0,0,0,99.28,0,92.76,92.76,0,0,0,35.76-34.13Q1569,267.45,1569,239.93T1555.94,190.59ZM1544.13,212a76.06,76.06,0,0,1-1.23,10.42,70.9,70.9,0,0,1-6.29,18.09A62,62,0,0,1,1530,250.8c-1.58,2-3.36,4.21-5.44,6.37l-2.78,2.66a66.53,66.53,0,0,1-9.91,7.33,48.71,48.71,0,0,1-5.4,2.89,0,0,0,0,1,0,0c-.42.62-.89,1.27-1.39,1.89v0c-.69.88-1.39,1.73-2.16,2.58a39,39,0,0,1-23.45,12.27,55,55,0,0,1-8.87.69,58.67,58.67,0,0,1-8-.54c-10-1.35-18.13-5.44-24.38-12.23a46.59,46.59,0,0,1-16.35-7.86,25.46,25.46,0,0,1-2.28-1.74,48.56,48.56,0,0,1-8.18-8.72,47.24,47.24,0,0,1-5.7-9.79,53.41,53.41,0,0,1-3.36-11.42c-.23-1.39-.42-2.85-.58-4.32-.07-.66-.15-1.31-.23-1.93a68.86,68.86,0,0,1-.31-11.76v-.58c.08-2.28.35-4.44.58-6.33.08-.73.31-2.62.35-2.85a13.39,13.39,0,0,1,1-3.16A11.7,11.7,0,0,1,1413,197h.85a11.51,11.51,0,0,1,10,5.63l.58.42a12.09,12.09,0,0,0,3.2,1.58l5.17,1.78,1.51.46,1.65.58c.66-.89,1.39-1.74,2.16-2.59,7.83-8.56,18.63-12.84,32.48-12.84a52,52,0,0,1,13.31,1.62l.61-.39c2.36-1.35,4.83-2.66,7.29-3.89,1.82-.93,3.55-1.74,5.29-2.55,1.16-.58,2.35-1.12,3.51-1.69,3.66-1.78,7.37-3.63,11-5.56a18.07,18.07,0,0,0,4.82-3.51c.24-.31.51-.73.85-1.19s.7-1.08,1.08-1.59a11.63,11.63,0,0,1,9.38-4.78h.5a11.7,11.7,0,0,1,9.41,5.59,16.14,16.14,0,0,1,1.12,2.24,7.18,7.18,0,0,1,.27.73,116.38,116.38,0,0,1,3.85,15.43c.58,3.24.89,6.44,1.2,9.41A84.53,84.53,0,0,1,1544.13,212Zm-12.76-17.47a99.55,99.55,0,0,0-3.44-13.81,4.6,4.6,0,0,0-.3-.58c-.93,1.28-1.7,2.55-2.63,3.63a28.36,28.36,0,0,1-8,6.05c-3.74,2-7.56,3.94-11.38,5.79-2.85,1.39-5.75,2.7-8.6,4.13a37.54,37.54,0,0,1,5.86,5.2,42.68,42.68,0,0,1,6.33,9,2.18,2.18,0,0,1,.15.39c3.63,7.13,5.4,15.66,5.4,25.61a68.5,68.5,0,0,1-.92,11.49c.81-.77,1.62-1.54,2.43-2.35a72.47,72.47,0,0,0,4.7-5.52,48.8,48.8,0,0,0,5.33-8.29,58.21,58.21,0,0,0,5.24-15,60.33,60.33,0,0,0,1-8.76,68.73,68.73,0,0,0-.11-8.49C1532.18,200.16,1531.87,197.31,1531.37,194.49Zm-107.54,21.14a23,23,0,0,1-5.86-2.9,12.78,12.78,0,0,1-4.17-4.2,5.66,5.66,0,0,0-.31.89c-.27,2.54-.69,5.09-.77,7.63a61.57,61.57,0,0,0,.2,10.34c.27,1.93.42,3.94.77,5.86a41.49,41.49,0,0,0,2.62,8.95,34.81,34.81,0,0,0,4.28,7.33,37.86,37.86,0,0,0,6.21,6.67c.62.5,1.24,1,1.85,1.43a63.19,63.19,0,0,1-2.31-17.7c0-8.41,1.23-15.82,3.78-22.18C1428,217.05,1425.91,216.36,1423.83,215.63Zm6.29,2.12c-2.08-.7-4.21-1.39-6.29-2.12a23,23,0,0,1-5.86-2.9,12.78,12.78,0,0,1-4.17-4.2,5.66,5.66,0,0,0-.31.89c-.27,2.54-.69,5.09-.77,7.63a61.57,61.57,0,0,0,.2,10.34c.27,1.93.42,3.94.77,5.86a41.49,41.49,0,0,0,2.62,8.95,34.81,34.81,0,0,0,4.28,7.33,37.86,37.86,0,0,0,6.21,6.67c.62.5,1.24,1,1.85,1.43a63.19,63.19,0,0,1-2.31-17.7C1426.34,231.52,1427.57,224.11,1430.12,217.75ZM1532.45,203c-.27-2.85-.58-5.7-1.08-8.52a99.55,99.55,0,0,0-3.44-13.81,4.6,4.6,0,0,0-.3-.58c-.93,1.28-1.7,2.55-2.63,3.63a28.36,28.36,0,0,1-8,6.05c-3.74,2-7.56,3.94-11.38,5.79-2.85,1.39-5.75,2.7-8.6,4.13a37.54,37.54,0,0,1,5.86,5.2,42.68,42.68,0,0,1,6.33,9,2.18,2.18,0,0,1,.15.39c3.63,7.13,5.4,15.66,5.4,25.61a68.5,68.5,0,0,1-.92,11.49c.81-.77,1.62-1.54,2.43-2.35a72.47,72.47,0,0,0,4.7-5.52,48.8,48.8,0,0,0,5.33-8.29,58.21,58.21,0,0,0,5.24-15,60.33,60.33,0,0,0,1-8.76A68.73,68.73,0,0,0,1532.45,203Zm-102.33,14.74c-2.08-.7-4.21-1.39-6.29-2.12a23,23,0,0,1-5.86-2.9,12.78,12.78,0,0,1-4.17-4.2,5.66,5.66,0,0,0-.31.89c-.27,2.54-.69,5.09-.77,7.63a61.57,61.57,0,0,0,.2,10.34c.27,1.93.42,3.94.77,5.86a41.49,41.49,0,0,0,2.62,8.95,34.81,34.81,0,0,0,4.28,7.33,37.86,37.86,0,0,0,6.21,6.67c.62.5,1.24,1,1.85,1.43a63.19,63.19,0,0,1-2.31-17.7C1426.34,231.52,1427.57,224.11,1430.12,217.75Zm0,0c-2.08-.7-4.21-1.39-6.29-2.12a23,23,0,0,1-5.86-2.9,12.78,12.78,0,0,1-4.17-4.2,5.66,5.66,0,0,0-.31.89c-.27,2.54-.69,5.09-.77,7.63a61.57,61.57,0,0,0,.2,10.34c.27,1.93.42,3.94.77,5.86a41.49,41.49,0,0,0,2.62,8.95,34.81,34.81,0,0,0,4.28,7.33,37.86,37.86,0,0,0,6.21,6.67c.62.5,1.24,1,1.85,1.43a63.19,63.19,0,0,1-2.31-17.7C1426.34,231.52,1427.57,224.11,1430.12,217.75Zm79.72-4a5.31,5.31,0,0,1-.65.19,2.18,2.18,0,0,1,.15.39l.54-.31C1509.88,213.93,1509.84,213.81,1509.84,213.74Z"/>
        <path class="cls-4" d="M1532.56,211.5a60.33,60.33,0,0,1-1,8.76,58.21,58.21,0,0,1-5.24,15,48.8,48.8,0,0,1-5.33,8.29,72.47,72.47,0,0,1-4.7,5.52c-.81.81-1.62,1.58-2.43,2.35a52.45,52.45,0,0,1-8,5.82,68.55,68.55,0,0,1-17,7.1c-4.39,1.27-8.79,2.39-13.15,3.7a29.33,29.33,0,0,0-9.56,4.48c-.93.69-1.82,1.5-2.86,2.39.12-.77.19-1.43.31-2a79.32,79.32,0,0,1,7.41-21.18,77.5,77.5,0,0,1,7.79-12,88.38,88.38,0,0,1,8.29-9.22,87.24,87.24,0,0,1,9.87-8.26,114,114,0,0,1,12.42-7.9l.54-.31c0-.08,0-.2,0-.27a5.31,5.31,0,0,1-.65.19c-1.24.42-2.51.77-3.7,1.31-2.74,1.16-5.48,2.35-8.14,3.74a70.38,70.38,0,0,0-14.24,9.76c-2.19,2-4.43,3.94-6.44,6.1a64,64,0,0,0-11.61,17.62,68.28,68.28,0,0,0-3.66,10.69,1.86,1.86,0,0,1-.35-.51,67.47,67.47,0,0,0-2.66-7.71,47.81,47.81,0,0,0-3.74-7.17,50.59,50.59,0,0,0-3.63-5.06,27.62,27.62,0,0,0-3.16-3.58,37.78,37.78,0,0,0-14.39-9.34,7.68,7.68,0,0,0-2.31-.42c.93.58,1.89,1.16,2.82,1.7a49.16,49.16,0,0,1,10.6,8.79,46.18,46.18,0,0,1,6.25,8.72,86.86,86.86,0,0,1,7.06,17.39,4.35,4.35,0,0,1,.12.81c-1.08-.23-2.09-.46-3.09-.62-1.81-.3-3.63-.5-5.44-.81-2.78-.54-5.55-1-8.29-1.73a35.15,35.15,0,0,1-12.54-6c-.61-.42-1.23-.93-1.85-1.43a37.86,37.86,0,0,1-6.21-6.67,34.81,34.81,0,0,1-4.28-7.33,41.49,41.49,0,0,1-2.62-8.95c-.35-1.92-.5-3.93-.77-5.86a61.57,61.57,0,0,1-.2-10.34c.08-2.54.5-5.09.77-7.63a5.66,5.66,0,0,1,.31-.89,12.78,12.78,0,0,0,4.17,4.2,23,23,0,0,0,5.86,2.9c2.08.73,4.21,1.42,6.29,2.12s4.4,1.46,6.56,2.24a53.62,53.62,0,0,1,14.27,6.9,26.56,26.56,0,0,1,8.41,10c.34.73.61,1.54.92,2.31a10.31,10.31,0,0,0,.46,1.05c.2-.78.39-1.32.47-1.86a45.06,45.06,0,0,1,8.25-17.93,51.63,51.63,0,0,1,6.37-6.91,77.78,77.78,0,0,1,14.42-10.22c2.2-1.27,4.47-2.47,6.75-3.62,2.85-1.43,5.75-2.74,8.6-4.13,3.82-1.85,7.64-3.78,11.38-5.79a28.36,28.36,0,0,0,8-6.05c.93-1.08,1.7-2.35,2.63-3.63a4.6,4.6,0,0,1,.3.58,99.55,99.55,0,0,1,3.44,13.81c.5,2.82.81,5.67,1.08,8.52A68.73,68.73,0,0,1,1532.56,211.5Z"/>
        <path class="cls-5" d="M1543.36,276.13l0,0a7.34,7.34,0,0,1-1.27,2,2.93,2.93,0,0,1-.36.35c-7.89,10.92-44.34,55.29-100.76,34.62-.32-.13-.65-.22-1-.36a41.44,41.44,0,0,1-4.8-2c-3.23-1.56-6.35-3.21-9.39-5a72.67,72.67,0,0,1-7.17-5.13c-1.54-1.2-2.91-2.67-4.41-4a66.83,66.83,0,0,1-9.29-10.47,97.13,97.13,0,0,1-5.66-8.83c-1.79-3.11-3.37-6.41-5-9.71-.64-1.38-1.18-2.8-1.86-4.54a23.68,23.68,0,0,0,12.58,3.79c4.88,0,9.75-1.16,14.7-2.72,5.38-1.74,10.72-3.75,16.09-5.35a49.15,49.15,0,0,1,15.67-2.18,40.46,40.46,0,0,1,12.11,2.18c2.87,1,5.59,2.23,8.35,3.39,4.84,2.09,9.61,4.36,14.52,6.19,2.55.94,5.41,1.07,8.14,1.56.68.09,1.54-.27,1.86.67a10.58,10.58,0,0,1,1,3.21c.22,2.31-1.08,4.23-2.51,5.88a12.36,12.36,0,0,1-7.88,4.23c-1.76.22-3.52.89-5.27,1.11a48.1,48.1,0,0,1-6.71.49,74.91,74.91,0,0,1-9.64-.89c-3.19-.53-6.27-1.47-9.46-2.27-.29.71.25,1,.57,1.29,1.26,1.25,2.51,2.5,3.87,3.61a25.58,25.58,0,0,0,12.08,5.48,45.09,45.09,0,0,0,11.22.4c1.79-.13,3.59-.13,5.38-.4a73.45,73.45,0,0,0,18.75-5.7A146.46,146.46,0,0,0,1529.52,274c2.3-1.56,4.66-2.85,7-4.27,2.69-1.7,6.49-.05,7.24,3.83a4.41,4.41,0,0,1-.4,2.58Z"/>
      </g>
    </g>
  </g>
</svg>
