<svg xmlns="http://www.w3.org/2000/svg" viewBox="0 0 87.09 22.58">
  <defs>
    <style>
      .cls-1 {
        fill: #e00814;
      }

      .cls-2 {
        fill: #b31c20;
      }

      .cls-3 {
        fill: #0ca23f;
      }

      .cls-4 {
        fill: #fff;
      }

      .cls-5 {
        fill: #1d1d1b;
      }

      .cls-6 {
        fill: #2b2a2b;
      }

      .cls-7 {
        fill: #f9be97;
      }
    </style>
  </defs>
  <g id="Capa_2" data-name="Capa 2">
    <g id="Capa_1-2" data-name="Capa 1">
      <g>
        <path class="cls-1" d="M9.2,6.06c-.3,0-.61-.07-.92-.13a6,6,0,0,1-1.59-.62,4.1,4.1,0,0,0-2.14-.5,3.84,3.84,0,0,0-1.83.59A5.17,5.17,0,0,0,.57,8.1a9.1,9.1,0,0,0-.51,2.53C0,11,0,11.45,0,11.87a9.1,9.1,0,0,0,.34,2.32c.16.58.33,1.16.54,1.72s.54,1.18.83,1.76a8,8,0,0,0,.47.8l0,.06h0l.48.42c.23.2.45.42.69.6.41.29.83.58,1.27.84a8,8,0,0,0,2.2.93c.43.1.86.18,1.3.24s.62.06.93.07a5.34,5.34,0,0,0,.69-.05,12.63,12.63,0,0,0,1.37-.23A6.26,6.26,0,0,0,13,20.59a7.52,7.52,0,0,0,.82-.57,2.64,2.64,0,0,0,.51-.44,3.32,3.32,0,0,1,.38-.37c.21-.23.39-.48.59-.71a12.33,12.33,0,0,0,1.28-1.78c.24-.41.47-.82.68-1.24a11.49,11.49,0,0,0,.85-2.34c.07-.3.13-.6.17-.9.06-.47.11-.93.13-1.4a10.28,10.28,0,0,0,0-1.24,8.13,8.13,0,0,0-.14-1c-.1-.47-.23-.92-.35-1.38,0-.15-.09-.29-.13-.43A4.14,4.14,0,0,0,16.68,6a5.68,5.68,0,0,0-.55-.28,4.56,4.56,0,0,0-2.22-.35A14,14,0,0,0,12,5.77a10.08,10.08,0,0,1-2.26.3h0v.16h.16l.66-.07,1.77-.3a5.58,5.58,0,0,1,.57-.08.2.2,0,0,1,.21.3,1.91,1.91,0,0,1-.42.43,2.53,2.53,0,0,1-.56.23,6.59,6.59,0,0,1-1.45.38c-.24,0-.47.07-.71.08a5.76,5.76,0,0,1-1.55-.1,6.59,6.59,0,0,1-2-.72A2.18,2.18,0,0,1,5.9,6,.13.13,0,0,1,6,5.81a1.41,1.41,0,0,1,.49-.09,4.59,4.59,0,0,1,.83.1c.43.09.86.22,1.3.32a6.17,6.17,0,0,0,.62.09Z"/>
        <path class="cls-2" d="M17.71,6.73l.12.43c.12.46.25.91.35,1.38a8.13,8.13,0,0,1,.14,1,10.28,10.28,0,0,1,0,1.24,13,13,0,0,1-.13,1.4c0,.3-.1.6-.17.9a11.49,11.49,0,0,1-.85,2.34c-.2.42-.43.83-.67,1.24a14.08,14.08,0,0,1-1.28,1.78c-.2.23-.39.48-.59.71a4.59,4.59,0,0,0-.39.37,2.16,2.16,0,0,1-.51.44,6,6,0,0,1-.82.57,6.32,6.32,0,0,1-1.85.75,13.24,13.24,0,0,1-1.38.23,4,4,0,0,1-.69.05c-.31,0-.62,0-.93-.07s-.87-.14-1.29-.24a8.11,8.11,0,0,1-2.21-.93c-.43-.26-.85-.55-1.26-.84-.25-.18-.47-.4-.7-.6l-.48-.42.24.38a12.65,12.65,0,0,0,2.27,2.41A8.24,8.24,0,0,0,6,22.15a3,3,0,0,0,2.4.27c.52-.14,1-.27,1.57-.37a3.31,3.31,0,0,1,1.53.12,4.44,4.44,0,0,0,1.7.19A2.84,2.84,0,0,0,15,21.54a15.8,15.8,0,0,0,2.41-3.17,13.9,13.9,0,0,0,1.51-3.58A11.67,11.67,0,0,0,19.19,13a11.22,11.22,0,0,0,0-2.09,10.39,10.39,0,0,0-.63-2.86A4.33,4.33,0,0,0,17.71,6.73Z"/>
        <path class="cls-3" d="M9.61,4.63l.45.15a4.1,4.1,0,0,0,2.17,0,6.5,6.5,0,0,0,2.46-1.34,7.73,7.73,0,0,0,1.82-2.16,4,4,0,0,0,.41-.92c-.27,0-.52-.08-.77-.1s-.44,0-.66-.06a.22.22,0,0,1-.13-.06.6.6,0,0,0-.64-.06,1.71,1.71,0,0,1-.66.12,6.17,6.17,0,0,0-2.54.62,3.74,3.74,0,0,0-2,2.6s0,.09,0,.14C9.5,3.91,9.55,4.27,9.61,4.63Zm5.12-3.54L14.61.94s.07-.07.09-.06a.41.41,0,0,1,.13.1Z"/>
        <path class="cls-2" d="M9.61,4.63c-.06-.36-.11-.72-.17-1.08A6.21,6.21,0,0,0,8.92,2a.34.34,0,0,0-.47-.19A1.59,1.59,0,0,0,8,2.1c-.14.11-.14.24,0,.41a5.86,5.86,0,0,1,.91,1.86A6,6,0,0,1,9.21,6a.45.45,0,0,1,0,.11v.17a6.17,6.17,0,0,1-.62-.09c-.44-.1-.87-.23-1.3-.32a4.59,4.59,0,0,0-.83-.1A1.41,1.41,0,0,0,6,5.81.13.13,0,0,0,5.9,6a2.18,2.18,0,0,0,.45.35,6.59,6.59,0,0,0,2,.72,5.76,5.76,0,0,0,1.55.1c.24,0,.47,0,.71-.08a6.59,6.59,0,0,0,1.45-.38,2.53,2.53,0,0,0,.56-.23,1.91,1.91,0,0,0,.42-.43.2.2,0,0,0-.21-.3,5.58,5.58,0,0,0-.57.08l-1.77.3-.66.07H9.69V6.07a.14.14,0,0,1,0-.06Z"/>
        <path class="cls-2" d="M1.84,18.46l0-.06Z"/>
      </g>
      <path class="cls-4" d="M14.46,7.87V14.7a6.07,6.07,0,0,1-.28,1.87A3.61,3.61,0,0,1,13.27,18a4.27,4.27,0,0,1-1.64.93,8.37,8.37,0,0,1-2.47.32A8.61,8.61,0,0,1,6.7,19a4.09,4.09,0,0,1-1.61-.84,3.21,3.21,0,0,1-.87-1.33A5.58,5.58,0,0,1,4,15.06h2.9a1.68,1.68,0,0,0,.59,1.35,2.58,2.58,0,0,0,1.71.5,2.7,2.7,0,0,0,1-.17,2.15,2.15,0,0,0,.76-.46,2.18,2.18,0,0,0,.46-.7,2.5,2.5,0,0,0,.15-.88V9.09a9,9,0,0,0,1.27-.38l.09,0a4.11,4.11,0,0,0,.91-.43,3.19,3.19,0,0,0,.46-.38Z"/>
      <path class="cls-3" d="M20.36,18.17V7.87h8.43v2.19H23v1.55H28v2.18H23V16h5.87v2.19Z"/>
      <path class="cls-3" d="M30,18.17V7.87h2.66l4.91,6.32V7.87h2.66v10.3H37.58l-4.91-6.33v6.33Z"/>
      <path class="cls-3" d="M52.23,18.17H49.55L48.8,16.3H44.38l-.74,1.87H41l4.26-10.3H48Zm-7-4.05h2.68l-1.11-2.81-.23-1.21-.23,1.21Z"/>
      <path class="cls-3" d="M57.25,12.25h5.27v5.92H61.14a.89.89,0,0,1-.88-.72h0a4.09,4.09,0,0,1-1.35.71,6.75,6.75,0,0,1-2.07.27,5,5,0,0,1-1.7-.3,4.13,4.13,0,0,1-1.49-.94,4.9,4.9,0,0,1-1.07-1.68A6.83,6.83,0,0,1,52.17,13,5.38,5.38,0,0,1,53.56,9a5.52,5.52,0,0,1,4-1.33,7.1,7.1,0,0,1,2.06.27,5.14,5.14,0,0,1,1.52.75,3.53,3.53,0,0,1,1,1.09,3.72,3.72,0,0,1,.43,1.32H60a.86.86,0,0,0-.18-.45,1.31,1.31,0,0,0-.46-.4,2.94,2.94,0,0,0-.75-.29,4.67,4.67,0,0,0-1.06-.11,3.22,3.22,0,0,0-.89.14,2,2,0,0,0-.87.5,2.56,2.56,0,0,0-.66,1,4.09,4.09,0,0,0-.26,1.6,4.16,4.16,0,0,0,.26,1.62,2.64,2.64,0,0,0,.66,1,2,2,0,0,0,.87.49,3.19,3.19,0,0,0,.89.13,4.61,4.61,0,0,0,1-.1,3.59,3.59,0,0,0,.78-.24,1.57,1.57,0,0,0,.49-.34.61.61,0,0,0,.17-.39v-.73h-1.4a1.36,1.36,0,0,1-1.36-1.36Z"/>
      <path class="cls-3" d="M73.49,17.51c-.11-.69,0-1.74-.11-2.43a1.42,1.42,0,0,0-1.15-1.19,3,3,0,0,0,.83-.66,3.06,3.06,0,0,0,.65-2,3.49,3.49,0,0,0-.27-1.42,2.44,2.44,0,0,0-.85-1,4.32,4.32,0,0,0-1.5-.64,10,10,0,0,0-2.21-.22h-5v10.3h2.69V14.5H69.1a1.62,1.62,0,0,1,1.62,1.58l.06,2.09h3C73.63,18.11,73.54,17.85,73.49,17.51Zm-2.58-5.78a.85.85,0,0,1-.38.34,2.07,2.07,0,0,1-.66.19,8.91,8.91,0,0,1-1,.06H66.53V10.06h2.35a3.85,3.85,0,0,1,1.65.25.89.89,0,0,1,.49.88A1.2,1.2,0,0,1,70.91,11.73Z"/>
      <path class="cls-5" d="M87.09,8.24a.7.7,0,1,1-.69-.68A.68.68,0,0,1,87.09,8.24Zm-1.22,0a.53.53,0,1,0,.52-.54A.53.53,0,0,0,85.87,8.24Zm.42.35h-.16V7.91l.26,0c.13,0,.19,0,.23.06a.14.14,0,0,1,.07.14.17.17,0,0,1-.14.16h0c.07,0,.1.07.12.16a.72.72,0,0,0,0,.17h-.16a1,1,0,0,1-.06-.17c0-.07,0-.1-.14-.1h-.07Zm0-.38h.08c.09,0,.16,0,.16-.1s0-.1-.15-.1h-.09Z"/>
      <g>
        <path class="cls-6" d="M21.44,20.52l-.13.66h1.16l-.1.46H21.22l-.18.91h-.58l.5-2.49h1.88l-.09.46Z"/>
        <path class="cls-6" d="M24.09,20.66a1.33,1.33,0,0,1,.42-.06l-.1.52h-.13a.65.65,0,0,0-.41.12.66.66,0,0,0-.2.39l-.19.93h-.55l.38-1.92h.53l-.05.23A.69.69,0,0,1,24.09,20.66Z"/>
        <path class="cls-6" d="M26.77,21.74H25.31c0,.26.18.39.49.39a.86.86,0,0,0,.28,0,.74.74,0,0,0,.23-.14l.24.37a1,1,0,0,1-.37.19,1.27,1.27,0,0,1-.44.07,1.16,1.16,0,0,1-.51-.11.79.79,0,0,1-.35-.3.84.84,0,0,1-.12-.45,1.1,1.1,0,0,1,.15-.57,1,1,0,0,1,.4-.4,1.14,1.14,0,0,1,.58-.15,1.07,1.07,0,0,1,.49.11.72.72,0,0,1,.31.29.84.84,0,0,1,.12.45A1.06,1.06,0,0,1,26.77,21.74Zm-1.23-.61a.5.5,0,0,0-.19.29h.95a.36.36,0,0,0-.12-.29.45.45,0,0,0-.31-.11A.52.52,0,0,0,25.54,21.13Z"/>
        <path class="cls-6" d="M27.46,22.52a1.09,1.09,0,0,1-.34-.14l.21-.41a1,1,0,0,0,.3.14,1.5,1.5,0,0,0,.37.05.67.67,0,0,0,.28-.05.15.15,0,0,0,.09-.14.11.11,0,0,0-.08-.1A1.43,1.43,0,0,0,28,21.8l-.34-.08a.87.87,0,0,1-.23-.16.41.41,0,0,1-.1-.28.57.57,0,0,1,.27-.5,1.23,1.23,0,0,1,.7-.18,1.58,1.58,0,0,1,.38,0,1.28,1.28,0,0,1,.33.11l-.2.41a1.05,1.05,0,0,0-.57-.15.55.55,0,0,0-.28.06.15.15,0,0,0-.09.13.12.12,0,0,0,.08.11,1.59,1.59,0,0,0,.28.07l.33.09a.54.54,0,0,1,.22.15.36.36,0,0,1,.1.28.55.55,0,0,1-.27.49,1.22,1.22,0,0,1-.69.18A1.86,1.86,0,0,1,27.46,22.52Z"/>
        <path class="cls-6" d="M29.89,22.47a.77.77,0,0,1-.34-.3.84.84,0,0,1-.12-.45,1.1,1.1,0,0,1,.15-.57,1.08,1.08,0,0,1,.42-.4,1.16,1.16,0,0,1,.6-.15,1.12,1.12,0,0,1,.53.13.72.72,0,0,1,.33.36l-.47.23a.44.44,0,0,0-.43-.26.57.57,0,0,0-.29.08.5.5,0,0,0-.2.23.66.66,0,0,0-.08.32.41.41,0,0,0,.12.31.45.45,0,0,0,.33.12.54.54,0,0,0,.47-.26l.41.26a1,1,0,0,1-.38.34,1.18,1.18,0,0,1-.53.12A1.21,1.21,0,0,1,29.89,22.47Z"/>
        <path class="cls-6" d="M34.06,20.63l-.38,1.92h-.52l0-.21a.75.75,0,0,1-.28.18,1,1,0,0,1-.34.06.74.74,0,0,1-.5-.17.66.66,0,0,1-.19-.48,1,1,0,0,1,0-.24l.21-1.06h.55l-.2,1a.61.61,0,0,0,0,.14c0,.2.1.3.32.3a.49.49,0,0,0,.35-.13.62.62,0,0,0,.18-.37l.2-1Z"/>
        <path class="cls-6" d="M35.61,20.66A1.33,1.33,0,0,1,36,20.6l-.1.52H35.8a.62.62,0,0,0-.4.12.73.73,0,0,0-.21.39l-.18.93h-.56l.38-1.92h.53l0,.23A.83.83,0,0,1,35.61,20.66Z"/>
        <path class="cls-6" d="M38.58,20.63l-.38,1.92h-.53l0-.19a.88.88,0,0,1-1,.11.83.83,0,0,1-.3-.29,1,1,0,0,1-.11-.46,1.2,1.2,0,0,1,.14-.57,1,1,0,0,1,.38-.4,1,1,0,0,1,.54-.15.68.68,0,0,1,.62.29l.05-.26Zm-1,1.41a.56.56,0,0,0,.2-.23.66.66,0,0,0,.07-.32.43.43,0,0,0-.11-.31.45.45,0,0,0-.33-.12.57.57,0,0,0-.29.08.64.64,0,0,0-.2.23.66.66,0,0,0-.07.32A.4.4,0,0,0,37,22a.41.41,0,0,0,.32.12A.57.57,0,0,0,37.58,22Z"/>
        <path class="cls-6" d="M42.29,20.66l-.38,1.89h-.33l.05-.23a.83.83,0,0,1-.3.18,1,1,0,0,1-.8,0,.71.71,0,0,1-.29-.28.9.9,0,0,1-.11-.44,1.2,1.2,0,0,1,.14-.57,1,1,0,0,1,.38-.39,1.06,1.06,0,0,1,.55-.15.86.86,0,0,1,.41.09.6.6,0,0,1,.27.25l.06-.32Zm-.87,1.51a.7.7,0,0,0,.26-.28.93.93,0,0,0,.1-.42.5.5,0,0,0-.15-.39.61.61,0,0,0-.42-.14.71.71,0,0,0-.64.39.91.91,0,0,0-.09.41.53.53,0,0,0,.14.39.61.61,0,0,0,.42.14A.7.7,0,0,0,41.42,22.17Z"/>
        <path class="cls-6" d="M44.4,22a.34.34,0,0,0,0,.1.24.24,0,0,0,.06.17.25.25,0,0,0,.19.06.44.44,0,0,0,.27-.09l.07.26a.76.76,0,0,1-.44.12.48.48,0,0,1-.36-.13A.44.44,0,0,1,44,22.1a.77.77,0,0,1,0-.15l.2-1h-.32l.05-.28h.33l.08-.41h.34l-.08.41h.54l-.06.28H44.6Z"/>
        <path class="cls-6" d="M47.67,20.66l-.37,1.89H47l0-.24a.77.77,0,0,1-.3.19.9.9,0,0,1-.37.07.72.72,0,0,1-.5-.17.59.59,0,0,1-.18-.46,1.8,1.8,0,0,1,0-.22l.21-1.06h.34L46,21.72a1,1,0,0,0,0,.16.35.35,0,0,0,.11.29.49.49,0,0,0,.32.09.68.68,0,0,0,.45-.15.76.76,0,0,0,.24-.45l.2-1Z"/>
        <path class="cls-6" d="M51.43,20.66l-.38,1.89h-.32l0-.23a.75.75,0,0,1-.3.18.86.86,0,0,1-.36.07.83.83,0,0,1-.43-.1.68.68,0,0,1-.3-.28.9.9,0,0,1-.11-.44,1.2,1.2,0,0,1,.14-.57,1,1,0,0,1,.38-.39,1.06,1.06,0,0,1,.55-.15.93.93,0,0,1,.42.09A.63.63,0,0,1,51,21l.07-.32Zm-.87,1.51a.7.7,0,0,0,.26-.28.82.82,0,0,0,.1-.42.5.5,0,0,0-.15-.39.56.56,0,0,0-.41-.14A.8.8,0,0,0,50,21a.84.84,0,0,0-.27.29.91.91,0,0,0-.09.41.5.5,0,0,0,.15.39.56.56,0,0,0,.41.14A.7.7,0,0,0,50.56,22.17Z"/>
        <path class="cls-6" d="M52.46,19.91h.34l-.52,2.64h-.35Z"/>
        <path class="cls-6" d="M53.58,22.47a.72.72,0,0,1-.31-.29.83.83,0,0,1-.11-.43,1.2,1.2,0,0,1,.14-.57,1.07,1.07,0,0,1,.4-.39,1.1,1.1,0,0,1,.57-.15.82.82,0,0,1,.78.41l-.29.16a.54.54,0,0,0-.51-.27.8.8,0,0,0-.38.1.69.69,0,0,0-.27.29.92.92,0,0,0-.1.41.5.5,0,0,0,.15.39.61.61,0,0,0,.42.14.71.71,0,0,0,.32-.07.52.52,0,0,0,.24-.2l.25.18a.84.84,0,0,1-.35.29,1.07,1.07,0,0,1-.47.1A1.06,1.06,0,0,1,53.58,22.47Z"/>
        <path class="cls-6" d="M57.6,20.66l-.37,1.89H56.9l.05-.23a.92.92,0,0,1-.3.18,1,1,0,0,1-.8,0,.71.71,0,0,1-.29-.28.8.8,0,0,1-.11-.44,1.2,1.2,0,0,1,.14-.57,1,1,0,0,1,.38-.39,1,1,0,0,1,.55-.15.86.86,0,0,1,.41.09.6.6,0,0,1,.27.25l.06-.32Zm-.86,1.51a.7.7,0,0,0,.26-.28.93.93,0,0,0,.09-.42.49.49,0,0,0-.14-.39.61.61,0,0,0-.42-.14.83.83,0,0,0-.38.1.73.73,0,0,0-.26.29.92.92,0,0,0-.1.41.5.5,0,0,0,.15.39.61.61,0,0,0,.42.14A.72.72,0,0,0,56.74,22.17Z"/>
        <path class="cls-6" d="M60,20.81a.59.59,0,0,1,.18.46.86.86,0,0,1,0,.22l-.21,1.06h-.34l.21-1.06a1.15,1.15,0,0,0,0-.16.38.38,0,0,0-.11-.28.48.48,0,0,0-.33-.1.69.69,0,0,0-.46.15.76.76,0,0,0-.24.45l-.2,1h-.34l.37-1.89h.33l0,.24a.91.91,0,0,1,.68-.26A.7.7,0,0,1,60,20.81Z"/>
        <path class="cls-6" d="M61.19,22.47a.72.72,0,0,1-.31-.29.83.83,0,0,1-.11-.43,1.2,1.2,0,0,1,.14-.57,1.07,1.07,0,0,1,.4-.39,1.1,1.1,0,0,1,.57-.15.82.82,0,0,1,.78.41l-.29.16a.54.54,0,0,0-.51-.27.8.8,0,0,0-.38.1.75.75,0,0,0-.27.29.92.92,0,0,0-.1.41.5.5,0,0,0,.15.39.61.61,0,0,0,.42.14A.68.68,0,0,0,62,22.2a.52.52,0,0,0,.24-.2l.25.18a.84.84,0,0,1-.35.29,1.07,1.07,0,0,1-.47.1A1.06,1.06,0,0,1,61.19,22.47Z"/>
        <path class="cls-6" d="M63.4,21.71v0a.51.51,0,0,0,.15.4.64.64,0,0,0,.44.14.88.88,0,0,0,.33-.06.76.76,0,0,0,.26-.16l.14.25a1.08,1.08,0,0,1-.33.2,1.23,1.23,0,0,1-.42.07,1,1,0,0,1-.48-.1.75.75,0,0,1-.32-.29.83.83,0,0,1-.11-.43,1.2,1.2,0,0,1,.14-.57,1,1,0,0,1,.38-.39,1,1,0,0,1,.55-.15.88.88,0,0,1,.61.22.81.81,0,0,1,.23.6,2.5,2.5,0,0,1,0,.25Zm.28-.64a.74.74,0,0,0-.25.39h1.22a.49.49,0,0,0-.13-.39.55.55,0,0,0-.41-.14A.64.64,0,0,0,63.68,21.07Z"/>
        <path class="cls-6" d="M65.47,22.5a.21.21,0,0,1-.06-.16.26.26,0,0,1,.07-.19.29.29,0,0,1,.18-.07.2.2,0,0,1,.16.07.23.23,0,0,1,.06.16.25.25,0,0,1-.07.19.24.24,0,0,1-.18.07A.21.21,0,0,1,65.47,22.5Z"/>
      </g>
      <path class="cls-3" d="M82.31,11.65h0v0h0ZM78,11.87l-.34-.12a1,1,0,0,1-.32-.15.72.72,0,0,1-.23-.23l0,.05c0,.13,0,.27,0,.41a5.42,5.42,0,0,0,0,.57,3.11,3.11,0,0,1,0,.32,2.06,2.06,0,0,0,.15.48,1.74,1.74,0,0,0,.23.4,2,2,0,0,0,.34.37l.1.07a3.54,3.54,0,0,1-.13-1A3.23,3.23,0,0,1,78,11.87Zm5.58-.8c0-.16,0-.31-.06-.47a5.15,5.15,0,0,0-.19-.75v0l-.15.2a1.54,1.54,0,0,1-.43.33l-.62.31-.47.23a2.07,2.07,0,0,1,.32.28,2.38,2.38,0,0,1,.34.49v0a3,3,0,0,1,.29,1.4,3.22,3.22,0,0,1,0,.63l.14-.13.25-.3a2.74,2.74,0,0,0,.29-.46,3.26,3.26,0,0,0,.29-.81,3.93,3.93,0,0,0,.06-.48C83.55,11.38,83.55,11.22,83.54,11.07Zm0,0c0-.16,0-.31-.06-.47a5.15,5.15,0,0,0-.19-.75v0l-.15.2a1.54,1.54,0,0,1-.43.33l-.62.31-.47.23a2.07,2.07,0,0,1,.32.28,2.38,2.38,0,0,1,.34.49v0a3,3,0,0,1,.29,1.4,3.22,3.22,0,0,1,0,.63l.14-.13.25-.3a2.74,2.74,0,0,0,.29-.46,3.26,3.26,0,0,0,.29-.81,3.93,3.93,0,0,0,.06-.48C83.55,11.38,83.55,11.22,83.54,11.07Zm-5.58.8-.34-.12a1,1,0,0,1-.32-.15.72.72,0,0,1-.23-.23l0,.05c0,.13,0,.27,0,.41a5.42,5.42,0,0,0,0,.57,3.11,3.11,0,0,1,0,.32,2.06,2.06,0,0,0,.15.48,1.74,1.74,0,0,0,.23.4,2,2,0,0,0,.34.37l.1.07a3.54,3.54,0,0,1-.13-1A3.23,3.23,0,0,1,78,11.87Zm0,0-.34-.12a1,1,0,0,1-.32-.15.72.72,0,0,1-.23-.23l0,.05c0,.13,0,.27,0,.41a5.42,5.42,0,0,0,0,.57,3.11,3.11,0,0,1,0,.32,2.06,2.06,0,0,0,.15.48,1.74,1.74,0,0,0,.23.4,2,2,0,0,0,.34.37l.1.07a3.54,3.54,0,0,1-.13-1A3.23,3.23,0,0,1,78,11.87Zm5.58-.8c0-.16,0-.31-.06-.47a5.15,5.15,0,0,0-.19-.75v0l-.15.2a1.54,1.54,0,0,1-.43.33l-.62.31-.47.23a2.07,2.07,0,0,1,.32.28,2.38,2.38,0,0,1,.34.49v0a3,3,0,0,1,.29,1.4,3.22,3.22,0,0,1,0,.63l.14-.13.25-.3a2.74,2.74,0,0,0,.29-.46,3.26,3.26,0,0,0,.29-.81,3.93,3.93,0,0,0,.06-.48C83.55,11.38,83.55,11.22,83.54,11.07Zm0,0c0-.16,0-.31-.06-.47a5.15,5.15,0,0,0-.19-.75v0l-.15.2a1.54,1.54,0,0,1-.43.33l-.62.31-.47.23a2.07,2.07,0,0,1,.32.28,2.38,2.38,0,0,1,.34.49v0a3,3,0,0,1,.29,1.4,3.22,3.22,0,0,1,0,.63l.14-.13.25-.3a2.74,2.74,0,0,0,.29-.46,3.26,3.26,0,0,0,.29-.81,3.93,3.93,0,0,0,.06-.48C83.55,11.38,83.55,11.22,83.54,11.07Zm-5.92.68a1,1,0,0,1-.32-.15.72.72,0,0,1-.23-.23l0,.05c0,.13,0,.27,0,.41a5.42,5.42,0,0,0,0,.57,3.11,3.11,0,0,1,0,.32,2.06,2.06,0,0,0,.15.48,1.74,1.74,0,0,0,.23.4,2,2,0,0,0,.34.37l.1.07a3.54,3.54,0,0,1-.13-1A3.23,3.23,0,0,1,78,11.87Zm7.2-1.36a5,5,0,0,0-1.94-1.85,5.89,5.89,0,0,0-5.42,0,5,5,0,0,0-2,1.85,5.09,5.09,0,0,0-.72,2.69,5.05,5.05,0,0,0,2.68,4.55,5.8,5.8,0,0,0,5.41,0,5.29,5.29,0,0,0,1.95-7.24Zm-.64,1.16a3.89,3.89,0,0,1-.41,1.56,2.86,2.86,0,0,1-.37.56,4.11,4.11,0,0,1-.29.35l-.15.14a3.27,3.27,0,0,1-.54.4,2.19,2.19,0,0,1-.3.16h0a.76.76,0,0,1-.08.11h0a1.34,1.34,0,0,1-.11.14,2.16,2.16,0,0,1-1.28.67,3.89,3.89,0,0,1-.49,0,3,3,0,0,1-.43,0A2.16,2.16,0,0,1,78.4,15a2.37,2.37,0,0,1-.89-.43l-.13-.09a2.56,2.56,0,0,1-.44-.48,2.09,2.09,0,0,1-.31-.53,2.7,2.7,0,0,1-.19-.63l0-.23v-.11a4.75,4.75,0,0,1,0-.64v0c0-.12,0-.24,0-.34a1.37,1.37,0,0,0,0-.16.71.71,0,0,1,0-.17.66.66,0,0,1,.55-.4h0a.64.64,0,0,1,.55.31l0,0a.68.68,0,0,0,.17.09l.28.09.09,0,.09,0a1.34,1.34,0,0,1,.11-.14,2.28,2.28,0,0,1,1.77-.7,2.81,2.81,0,0,1,.73.09l0,0,.4-.22.29-.13.19-.1q.3-.13.6-.3a1.25,1.25,0,0,0,.26-.19l0-.07.06-.08a.6.6,0,0,1,.51-.26h0a.65.65,0,0,1,.52.3l.06.12s0,0,0,0a6.21,6.21,0,0,1,.21.85c0,.17.05.35.07.51S84.18,11.36,84.18,11.55Zm-.7-1a5.15,5.15,0,0,0-.19-.75v0l-.15.2a1.54,1.54,0,0,1-.43.33l-.62.31-.47.23a2.07,2.07,0,0,1,.32.28,2.38,2.38,0,0,1,.34.49v0a3,3,0,0,1,.29,1.4,3.22,3.22,0,0,1,0,.63l.14-.13.25-.3a2.74,2.74,0,0,0,.29-.46,3.26,3.26,0,0,0,.29-.81,3.93,3.93,0,0,0,.06-.48c0-.15,0-.31,0-.46S83.51,10.76,83.48,10.6Zm-5.86,1.15a1,1,0,0,1-.32-.15.72.72,0,0,1-.23-.23l0,.05c0,.13,0,.27,0,.41a5.42,5.42,0,0,0,0,.57,3.11,3.11,0,0,1,0,.32,2.06,2.06,0,0,0,.15.48,1.74,1.74,0,0,0,.23.4,2,2,0,0,0,.34.37l.1.07a3.54,3.54,0,0,1-.13-1A3.23,3.23,0,0,1,78,11.87Zm.34.12-.34-.12a1,1,0,0,1-.32-.15.72.72,0,0,1-.23-.23l0,.05c0,.13,0,.27,0,.41a5.42,5.42,0,0,0,0,.57,3.11,3.11,0,0,1,0,.32,2.06,2.06,0,0,0,.15.48,1.74,1.74,0,0,0,.23.4,2,2,0,0,0,.34.37l.1.07a3.54,3.54,0,0,1-.13-1A3.23,3.23,0,0,1,78,11.87Zm5.58-.8c0-.16,0-.31-.06-.47a5.15,5.15,0,0,0-.19-.75v0l-.15.2a1.54,1.54,0,0,1-.43.33l-.62.31-.47.23a2.07,2.07,0,0,1,.32.28,2.38,2.38,0,0,1,.34.49v0a3,3,0,0,1,.29,1.4,3.22,3.22,0,0,1,0,.63l.14-.13.25-.3a2.74,2.74,0,0,0,.29-.46,3.26,3.26,0,0,0,.29-.81,3.93,3.93,0,0,0,.06-.48C83.55,11.38,83.55,11.22,83.54,11.07Zm-5.58.8-.34-.12a1,1,0,0,1-.32-.15.72.72,0,0,1-.23-.23l0,.05c0,.13,0,.27,0,.41a5.42,5.42,0,0,0,0,.57,3.11,3.11,0,0,1,0,.32,2.06,2.06,0,0,0,.15.48,1.74,1.74,0,0,0,.23.4,2,2,0,0,0,.34.37l.1.07a3.54,3.54,0,0,1-.13-1A3.23,3.23,0,0,1,78,11.87Zm0,0-.34-.12a1,1,0,0,1-.32-.15.72.72,0,0,1-.23-.23l0,.05c0,.13,0,.27,0,.41a5.42,5.42,0,0,0,0,.57,3.11,3.11,0,0,1,0,.32,2.06,2.06,0,0,0,.15.48,1.74,1.74,0,0,0,.23.4,2,2,0,0,0,.34.37l.1.07a3.54,3.54,0,0,1-.13-1A3.23,3.23,0,0,1,78,11.87Zm4.35-.22h0v0h0Z"/>
      <path class="cls-3" d="M83.55,11.53a3.93,3.93,0,0,1-.06.48,3.26,3.26,0,0,1-.29.81,2.74,2.74,0,0,1-.29.46l-.25.3-.14.13a2.61,2.61,0,0,1-.43.31,3.6,3.6,0,0,1-.93.39l-.72.2a1.56,1.56,0,0,0-.52.25.87.87,0,0,0-.15.13c0-.05,0-.08,0-.12a4.64,4.64,0,0,1,.41-1.15,4,4,0,0,1,.42-.65,5.47,5.47,0,0,1,.45-.51,5.85,5.85,0,0,1,.54-.45,7,7,0,0,1,.68-.43h0v0h0l-.2.07c-.15.07-.3.13-.44.21a3.7,3.7,0,0,0-.78.53c-.12.11-.24.21-.35.33a3.4,3.4,0,0,0-.63,1,3.06,3.06,0,0,0-.2.58l0,0a3,3,0,0,0-.15-.42,1.79,1.79,0,0,0-.2-.39,2.83,2.83,0,0,0-.2-.28,1,1,0,0,0-.17-.19,2,2,0,0,0-.79-.51.27.27,0,0,0-.12,0l.15.1a2.43,2.43,0,0,1,.58.48,2.69,2.69,0,0,1,.34.47,4.6,4.6,0,0,1,.38.95.06.06,0,0,1,0,0l-.17,0-.29,0a3.4,3.4,0,0,1-.46-.09,1.87,1.87,0,0,1-.68-.33l-.1-.07a2,2,0,0,1-.34-.37,1.74,1.74,0,0,1-.23-.4,2.06,2.06,0,0,1-.15-.48,3.11,3.11,0,0,0,0-.32,5.42,5.42,0,0,1,0-.57c0-.14,0-.28,0-.41l0-.05a.72.72,0,0,0,.23.23,1,1,0,0,0,.32.15l.34.12.36.12a3.31,3.31,0,0,1,.78.38,1.39,1.39,0,0,1,.45.54.69.69,0,0,1,0,.13.16.16,0,0,1,0,.06.41.41,0,0,1,0-.1,2.32,2.32,0,0,1,.45-1,3.07,3.07,0,0,1,.34-.38,4.35,4.35,0,0,1,.79-.56l.37-.19.47-.23.62-.31a1.54,1.54,0,0,0,.43-.33l.15-.2v0a5.15,5.15,0,0,1,.19.75c0,.16,0,.31.06.47S83.55,11.38,83.55,11.53Z"/>
      <path class="cls-7" d="M84.13,15.05h0a.26.26,0,0,1-.07.11l0,0a4.74,4.74,0,0,1-5.49,1.89l0,0-.26-.11a5.12,5.12,0,0,1-.52-.27l-.39-.28c-.08-.07-.15-.15-.24-.22a3.93,3.93,0,0,1-.5-.57,5.66,5.66,0,0,1-.31-.48,5.28,5.28,0,0,1-.27-.53,1.45,1.45,0,0,1-.1-.25,1.23,1.23,0,0,0,.68.21,2.82,2.82,0,0,0,.8-.15l.88-.29a2.56,2.56,0,0,1,.86-.12,2.41,2.41,0,0,1,.66.12l.45.18c.27.12.52.24.79.34a3.26,3.26,0,0,0,.45.09s.08,0,.1,0a.53.53,0,0,1,0,.18.45.45,0,0,1-.14.32.66.66,0,0,1-.43.23l-.28.06-.37,0a3.55,3.55,0,0,1-1-.18s0,.06,0,.07l.21.2a1.42,1.42,0,0,0,.66.3,2.48,2.48,0,0,0,.61,0l.3,0a4,4,0,0,0,1-.31,8.59,8.59,0,0,0,1.18-.71c.12-.09.25-.16.38-.24a.28.28,0,0,1,.4.21.39.39,0,0,1,0,.14Z"/>
    </g>
  </g>
</svg>
