<svg xmlns="http://www.w3.org/2000/svg" viewBox="0 0 21.23 24.86">
  <defs>
    <style>
      .cls-1 {
        fill: #e00814;
      }

      .cls-2 {
        fill: #b31c20;
      }

      .cls-3 {
        fill: #0ca23f;
      }

      .cls-4 {
        fill: #fff;
      }
    </style>
  </defs>
  <g id="Capa_2" data-name="Capa 2">
    <g id="Capa_1-2" data-name="Capa 1">
      <g>
        <path class="cls-1" d="M10.15,6.68c-.34,0-.68-.08-1-.14a6.58,6.58,0,0,1-1.75-.69A4.65,4.65,0,0,0,5,5.3,4.24,4.24,0,0,0,3,6a5.62,5.62,0,0,0-2.37,3,10.65,10.65,0,0,0-.57,2.79c0,.45-.06.91-.06,1.36a9.74,9.74,0,0,0,.38,2.57A15.94,15.94,0,0,0,1,17.54c.26.66.58,1.3.9,1.95.15.3.35.58.52.88l0,.05h0l.53.47c.26.22.5.45.77.65.45.33.91.64,1.39.93a8.59,8.59,0,0,0,2.44,1A13.19,13.19,0,0,0,9,23.76a8.91,8.91,0,0,0,1,.07,3.89,3.89,0,0,0,.76,0c.5-.07,1-.14,1.51-.25a6.9,6.9,0,0,0,2.05-.83,9.13,9.13,0,0,0,.91-.62,2.64,2.64,0,0,0,.56-.5,5.33,5.33,0,0,1,.42-.4l.65-.79a13,13,0,0,0,1.41-2c.27-.45.52-.9.75-1.37A12.8,12.8,0,0,0,20,14.48a7.88,7.88,0,0,0,.19-1c.06-.51.13-1,.15-1.54s0-.91-.05-1.36a10,10,0,0,0-.15-1.1C20,9,19.84,8.47,19.71,8c0-.16-.09-.32-.14-.48a5.06,5.06,0,0,0-1.18-.92,5,5,0,0,0-3.05-.69,15.61,15.61,0,0,0-2.13.48,10.36,10.36,0,0,1-2.48.33h-.05v.18h.17c.25,0,.49,0,.73-.08.66-.1,1.31-.22,2-.33.21,0,.42-.08.63-.09s.33.18.22.33a1.68,1.68,0,0,1-.45.47,3.12,3.12,0,0,1-.62.26,7.4,7.4,0,0,1-1.6.42c-.26,0-.52.08-.78.09a7,7,0,0,1-1.71-.11A7.09,7.09,0,0,1,7,7a1.8,1.8,0,0,1-.49-.38.14.14,0,0,1,.06-.25,1.72,1.72,0,0,1,.55-.1,4.63,4.63,0,0,1,.9.12c.48.1,1,.24,1.44.35.22.05.45.06.69.1Z"/>
        <path class="cls-2" d="M19.52,7.42c.05.15.1.31.14.47.13.51.28,1,.39,1.52a10,10,0,0,1,.15,1.1c0,.45.06.91.05,1.36s-.09,1-.15,1.55a8.63,8.63,0,0,1-.19,1A13.25,13.25,0,0,1,19,17c-.23.46-.48.92-.75,1.36a14.41,14.41,0,0,1-1.41,2c-.22.26-.43.53-.65.78a5.44,5.44,0,0,0-.42.41,2.68,2.68,0,0,1-.57.49,8.06,8.06,0,0,1-.9.63,7.27,7.27,0,0,1-2,.82c-.49.12-1,.18-1.51.26a4.84,4.84,0,0,1-.76,0,7.13,7.13,0,0,1-1-.07,13.19,13.19,0,0,1-1.42-.27,8.59,8.59,0,0,1-2.44-1,16,16,0,0,1-1.39-.93c-.27-.19-.51-.43-.77-.65l-.53-.47a4.32,4.32,0,0,0,.27.42,13.37,13.37,0,0,0,2.5,2.65,8.57,8.57,0,0,0,1.4,1,3.39,3.39,0,0,0,2.66.3c.57-.16,1.15-.3,1.73-.41a3.6,3.6,0,0,1,1.69.14,4.87,4.87,0,0,0,1.86.2,3.06,3.06,0,0,0,2-.9,17.39,17.39,0,0,0,2.66-3.5,14.92,14.92,0,0,0,1.66-3.95,12.47,12.47,0,0,0,.35-1.92,11.89,11.89,0,0,0,0-2.31,11.4,11.4,0,0,0-.7-3.15A4.58,4.58,0,0,0,19.52,7.42Z"/>
        <path class="cls-3" d="M10.59,5.11l.5.16a4.51,4.51,0,0,0,2.39,0,7.18,7.18,0,0,0,2.71-1.48,9,9,0,0,0,2-2.37,5,5,0,0,0,.44-1L17.8.27,17.07.21a.46.46,0,0,1-.14-.07.68.68,0,0,0-.71-.07,1.63,1.63,0,0,1-.72.14,7,7,0,0,0-2.8.68,4.11,4.11,0,0,0-2.24,2.87.88.88,0,0,0-.05.15ZM16.24,1.2,16.1,1s.09-.08.1-.07a.53.53,0,0,1,.15.11Z"/>
        <path class="cls-2" d="M10.59,5.11l-.18-1.2a7.48,7.48,0,0,0-.57-1.67A.38.38,0,0,0,9.31,2a2.11,2.11,0,0,0-.45.28c-.15.12-.15.27,0,.46a6.71,6.71,0,0,1,1,2.05,6.77,6.77,0,0,1,.32,1.73s0,.09,0,.13v.19c-.24,0-.47,0-.69-.1C9,6.66,8.5,6.52,8,6.42a4.63,4.63,0,0,0-.9-.12,1.72,1.72,0,0,0-.55.1.14.14,0,0,0-.06.25A1.8,1.8,0,0,0,7,7a7.09,7.09,0,0,0,2.23.8,7,7,0,0,0,1.71.11c.26,0,.52-.06.78-.09a7.4,7.4,0,0,0,1.6-.42,3.12,3.12,0,0,0,.62-.26,1.68,1.68,0,0,0,.45-.47c.11-.15,0-.34-.22-.33s-.42.06-.63.09c-.65.11-1.3.23-2,.33-.24,0-.48,0-.73.08h-.17V6.69a.14.14,0,0,1,0-.07C10.64,6.12,10.62,5.61,10.59,5.11Z"/>
        <path class="cls-2" d="M2,20.35l0-.06Z"/>
      </g>
      <path class="cls-4" d="M15.94,8.68v7.53a6.69,6.69,0,0,1-.31,2.06,3.78,3.78,0,0,1-1,1.59,4.55,4.55,0,0,1-1.81,1,8.94,8.94,0,0,1-2.73.36,9.6,9.6,0,0,1-2.71-.33A4.52,4.52,0,0,1,5.62,20a3.42,3.42,0,0,1-1-1.47,5.76,5.76,0,0,1-.3-1.91h3.2a1.85,1.85,0,0,0,.65,1.48,2.81,2.81,0,0,0,1.88.55,3.33,3.33,0,0,0,1.14-.18,2.32,2.32,0,0,0,.83-.51,2.13,2.13,0,0,0,.5-.78,2.56,2.56,0,0,0,.18-1V10a10.32,10.32,0,0,0,1.4-.42l.09,0a3.94,3.94,0,0,0,1-.48,2.78,2.78,0,0,0,.51-.41Z"/>
    </g>
  </g>
</svg>
