<svg xmlns="http://www.w3.org/2000/svg" xmlns:xlink="http://www.w3.org/1999/xlink" viewBox="0 0 192 108.01">
  <defs>
    <style>
      .cls-1 {
        fill: none;
      }

      .cls-2 {
        opacity: 0.07;
      }

      .cls-3 {
        clip-path: url(#clip-path);
      }

      .cls-4 {
        fill: #e00814;
      }

      .cls-5 {
        fill: #b31c20;
      }

      .cls-6 {
        fill: #0ca23f;
      }

      .cls-7, .cls-8 {
        fill: #fff;
      }

      .cls-8 {
        font-size: 14.71px;
        font-family: Montserrat-BoldItalic, Montserrat;
        font-weight: 700;
        font-style: italic;
        letter-spacing: 0.04em;
      }

      .cls-9 {
        letter-spacing: 0.05em;
      }

      .cls-10, .cls-16 {
        letter-spacing: 0.05em;
      }

      .cls-11 {
        letter-spacing: 0.05em;
      }

      .cls-12 {
        letter-spacing: 0.05em;
      }

      .cls-13 {
        letter-spacing: 0.04em;
      }

      .cls-14 {
        letter-spacing: 0.05em;
      }

      .cls-15 {
        font-family: Montserrat-SemiBoldItalic, Montserrat;
        font-weight: 600;
      }

      .cls-15, .cls-18 {
        letter-spacing: 0.05em;
      }

      .cls-16, .cls-17, .cls-18, .cls-19, .cls-20, .cls-21, .cls-22, .cls-23 {
        font-family: Montserrat-MediumItalic, Montserrat;
        font-weight: 500;
      }

      .cls-17 {
        letter-spacing: 0.02em;
      }

      .cls-19 {
        letter-spacing: 0.04em;
      }

      .cls-20 {
        letter-spacing: 0.04em;
      }

      .cls-21 {
        letter-spacing: 0.04em;
      }

      .cls-22 {
        letter-spacing: 0.04em;
      }

      .cls-23 {
        letter-spacing: 0.05em;
      }
    </style>
    <clipPath id="clip-path">
      <path class="cls-1" d="M0,0V108H192V0Z"/>
    </clipPath>
  </defs>
  <g id="Capa_2" data-name="Capa 2">
    <g id="Capa_1-2" data-name="Capa 1">
      <g class="cls-2">
        <g class="cls-3">
          <g>
            <g>
              <path class="cls-4" d="M102,46.38c-1.26-.18-2.54-.31-3.79-.55a24,24,0,0,1-6.58-2.56,16.85,16.85,0,0,0-8.85-2.06,15.84,15.84,0,0,0-7.55,2.45A21.21,21.21,0,0,0,66.38,54.8a38,38,0,0,0-2.12,10.43c-.13,1.7-.24,3.41-.24,5.12A37.23,37.23,0,0,0,65.44,80,66.83,66.83,0,0,0,67.67,87c1,2.49,2.21,4.89,3.4,7.3.56,1.14,1.3,2.2,2,3.3l.14.21h0l2,1.74c.95.82,1.85,1.72,2.87,2.45,1.69,1.22,3.43,2.4,5.22,3.48a33.2,33.2,0,0,0,9.11,3.83c1.76.43,3.55.73,5.34,1a31,31,0,0,0,3.86.28,16.75,16.75,0,0,0,2.83-.18c1.9-.27,3.82-.52,5.69-1a26.47,26.47,0,0,0,7.65-3.08,28.53,28.53,0,0,0,3.4-2.35,10,10,0,0,0,2.11-1.85,18.83,18.83,0,0,1,1.57-1.52c.85-1,1.62-2,2.45-2.93a53.93,53.93,0,0,0,5.28-7.36c1-1.67,1.94-3.37,2.79-5.12a47.35,47.35,0,0,0,3.5-9.67,32.63,32.63,0,0,0,.7-3.7c.25-1.92.49-3.85.56-5.79a43.54,43.54,0,0,0-.18-5.1,31.5,31.5,0,0,0-.57-4.11c-.41-1.92-1-3.81-1.45-5.7-.16-.6-.35-1.19-.52-1.78A18.58,18.58,0,0,0,132.9,46a25.26,25.26,0,0,0-2.26-1.15,19,19,0,0,0-9.16-1.43,56.93,56.93,0,0,0-8,1.8,39.49,39.49,0,0,1-9.3,1.23l-.19,0v.65c.26,0,.46,0,.65,0,.91-.09,1.82-.15,2.72-.29,2.45-.39,4.89-.81,7.34-1.22a21.13,21.13,0,0,1,2.37-.34.81.81,0,0,1,.83,1.22,7.06,7.06,0,0,1-1.72,1.77,10.35,10.35,0,0,1-2.29,1,26.57,26.57,0,0,1-6,1.58c-1,.13-1.94.29-2.91.35a26.39,26.39,0,0,1-6.4-.42,27.36,27.36,0,0,1-8.37-3,9.06,9.06,0,0,1-1.84-1.44.53.53,0,0,1,.24-.93A6.35,6.35,0,0,1,90.68,45a19.41,19.41,0,0,1,3.39.43c1.8.39,3.57.92,5.37,1.33.83.19,1.69.23,2.58.35Z"/>
              <path class="cls-5" d="M137.14,49.12c.17.6.36,1.18.52,1.78.49,1.9,1,3.78,1.45,5.7a31.65,31.65,0,0,1,.57,4.12,45.67,45.67,0,0,1,.18,5.1c-.07,1.93-.31,3.86-.56,5.79a33.48,33.48,0,0,1-.7,3.7A47.78,47.78,0,0,1,135.1,85c-.85,1.74-1.8,3.45-2.79,5.12A53.83,53.83,0,0,1,127,97.45c-.83,1-1.6,2-2.45,2.93-.48.55-1.16.94-1.58,1.53a9.64,9.64,0,0,1-2.1,1.84,28.53,28.53,0,0,1-3.4,2.35,26.3,26.3,0,0,1-7.65,3.08c-1.87.44-3.79.69-5.69,1a16.76,16.76,0,0,1-2.83.19,33.08,33.08,0,0,1-3.86-.28,54,54,0,0,1-5.34-1A33.17,33.17,0,0,1,83,105.23c-1.79-1.08-3.53-2.27-5.22-3.49-1-.73-1.92-1.62-2.87-2.45l-2-1.74c.33.53.63,1.07,1,1.58a52.14,52.14,0,0,0,9.37,9.92,33.06,33.06,0,0,0,5.27,3.77,12.67,12.67,0,0,0,9.93,1.11c2.15-.59,4.31-1.11,6.5-1.51a13.15,13.15,0,0,1,6.31.5,18.43,18.43,0,0,0,7,.77,11.69,11.69,0,0,0,7.5-3.39,66.08,66.08,0,0,0,10-13.09A57.67,57.67,0,0,0,142,82.41a49.91,49.91,0,0,0,1.29-7.19,45.46,45.46,0,0,0,.08-8.65,43.39,43.39,0,0,0-2.62-11.8A17.33,17.33,0,0,0,137.14,49.12Z"/>
              <path class="cls-6" d="M103.71,40.48c.62.2,1.23.41,1.86.59a16.36,16.36,0,0,0,8.94,0,26.52,26.52,0,0,0,10.17-5.53,32.47,32.47,0,0,0,7.53-8.89,17.43,17.43,0,0,0,1.67-3.84c-1.09-.14-2.14-.29-3.18-.4s-1.82-.14-2.73-.24a1.36,1.36,0,0,1-.52-.24,2.49,2.49,0,0,0-2.66-.27,5.94,5.94,0,0,1-2.71.5,26.24,26.24,0,0,0-10.51,2.58,15.41,15.41,0,0,0-8.38,10.74c0,.19-.13.37-.19.56C103.24,37.49,103.47,39,103.71,40.48Zm21.14-14.64-.51-.61c.13-.1.31-.29.38-.26a2.74,2.74,0,0,1,.55.43Z"/>
              <path class="cls-5" d="M103.71,40.48c-.24-1.49-.47-3-.71-4.48a26.4,26.4,0,0,0-2.14-6.27,1.42,1.42,0,0,0-2-.78A7.13,7.13,0,0,0,97.21,30c-.56.45-.56,1,0,1.7a25.53,25.53,0,0,1,3.74,7.69,26,26,0,0,1,1.16,6.5,2.59,2.59,0,0,1,0,.48v.68c-.89-.12-1.75-.16-2.58-.35-1.8-.41-3.57-.94-5.37-1.33A19.41,19.41,0,0,0,90.68,45a6.35,6.35,0,0,0-2.05.38.53.53,0,0,0-.24.93,9.06,9.06,0,0,0,1.84,1.44,27.36,27.36,0,0,0,8.37,3,26.39,26.39,0,0,0,6.4.42c1-.06,1.94-.22,2.91-.35a26.57,26.57,0,0,0,6-1.58,10.35,10.35,0,0,0,2.29-1,7.06,7.06,0,0,0,1.72-1.77.81.81,0,0,0-.83-1.22,21.13,21.13,0,0,0-2.37.34c-2.45.41-4.89.83-7.34,1.22-.9.14-1.81.2-2.72.29-.19,0-.39,0-.65,0v-.65a.92.92,0,0,1-.08-.27Q103.82,43.32,103.71,40.48Z"/>
              <path class="cls-5" d="M71.63,97.56l-.13-.21Z"/>
            </g>
            <path class="cls-7" d="M123.72,53.86V82.05a24.68,24.68,0,0,1-1.15,7.72,14.55,14.55,0,0,1-3.75,6,17.45,17.45,0,0,1-6.77,3.84,33.52,33.52,0,0,1-10.22,1.35,36,36,0,0,1-10.16-1.23,17.07,17.07,0,0,1-6.61-3.5,13,13,0,0,1-3.6-5.49,22.16,22.16,0,0,1-1.09-7.17h12a7,7,0,0,0,2.42,5.56q2.43,2.07,7.06,2.07a12.1,12.1,0,0,0,4.25-.69,8.67,8.67,0,0,0,3.1-1.92,8.3,8.3,0,0,0,1.9-2.9,9.75,9.75,0,0,0,.65-3.62V58.89A39.21,39.21,0,0,0,117,57.3l.36-.12a15.64,15.64,0,0,0,3.75-1.77,13.58,13.58,0,0,0,1.9-1.55Z"/>
            <path class="cls-7" d="M148.09,96.38V53.86h34.82v9H159.18v6.38h20.35v9H159.18v9h24.21v9Z"/>
            <path class="cls-7" d="M188,96.38V53.86h11L219.2,80V53.86h11V96.38h-11L199,70.23V96.38Z"/>
            <text class="cls-8" transform="translate(148.09 114.46)">F<tspan class="cls-9" x="9.93" y="0">r</tspan><tspan class="cls-10" x="16.99" y="0">e</tspan><tspan class="cls-11" x="26.99" y="0">s</tspan><tspan class="cls-12" x="35.53" y="0">c</tspan><tspan class="cls-13" x="44.89" y="0">u</tspan><tspan class="cls-14" x="55.65" y="0">r</tspan><tspan class="cls-10" x="62.71" y="0">a</tspan><tspan class="cls-15" x="73.63" y="0"> </tspan><tspan class="cls-16" x="78.45" y="0">a </tspan><tspan class="cls-17" x="93.97" y="0">t</tspan><tspan class="cls-18" x="100.32" y="0">u </tspan><tspan class="cls-19" x="115.76" y="0">a</tspan><tspan class="cls-20" x="126.32" y="0">l</tspan><tspan class="cls-21" x="130.98" y="0">c</tspan><tspan class="cls-19" x="140.04" y="0">a</tspan><tspan class="cls-22" x="150.59" y="0">n</tspan><tspan class="cls-23" x="161.18" y="0">c</tspan><tspan class="cls-18" x="170.24" y="0">e.</tspan></text>
          </g>
        </g>
      </g>
    </g>
  </g>
</svg>
