<svg xmlns="http://www.w3.org/2000/svg" xmlns:xlink="http://www.w3.org/1999/xlink" viewBox="0 0 1517.25 901.72">
  <defs>
    <style>
      .cls-1 {
        fill: #fff;
      }

      .cls-2 {
        fill: none;
        stroke: #fff;
        stroke-miterlimit: 10;
        stroke-width: 5px;
      }

      .cls-3 {
        fill: url(#Degradado_sin_nombre_13);
      }

      .cls-4 {
        fill: #0ca23f;
      }

      .cls-5 {
        fill: url(#Degradado_sin_nombre_13-2);
      }
    </style>
    <linearGradient id="Degradado_sin_nombre_13" data-name="Degradado sin nombre 13" x1="0.7" y1="831.13" x2="727.46" y2="831.13" gradientUnits="userSpaceOnUse">
      <stop offset="0" stop-color="#df0814"/>
      <stop offset="0.38" stop-color="#e32128"/>
      <stop offset="1" stop-color="#e73a4b"/>
    </linearGradient>
    <linearGradient id="Degradado_sin_nombre_13-2" x1="117.55" y1="698.54" x2="200.1" y2="698.54" xlink:href="#Degradado_sin_nombre_13"/>
  </defs>
  <g id="Capa_2" data-name="Capa 2">
    <g id="Capa_1-2" data-name="Capa 1">
      <g>
        <g>
          <path class="cls-1" d="M76.85,77.4H22.45L10.74,103.48H0L44.63,5.86H54.81l44.63,97.62H88.56ZM73.08,69,49.65,16.6,26.22,69Z"/>
          <path class="cls-1" d="M113.52,0h9.91V103.48h-9.91Z"/>
          <path class="cls-1" d="M150.9,12a6.84,6.84,0,0,1-2.09-5,6.71,6.71,0,0,1,2.09-4.88A7,7,0,0,1,156.06,0a7.17,7.17,0,0,1,5.16,2,6.46,6.46,0,0,1,2.09,4.81A7,7,0,0,1,161.22,12a7.39,7.39,0,0,1-10.32,0ZM151,30.12h9.9v73.36H151Z"/>
          <path class="cls-1" d="M301.73,37.52q7.88,7.95,7.88,23.43v42.53h-9.9V61.92q0-11.43-5.51-17.43t-15.55-6q-11.44,0-18,7T254.1,65v38.49h-9.9V61.92q0-11.43-5.51-17.43t-15.69-6q-11.3,0-17.92,7T198.46,65v38.49h-9.9V30.12H198V43.51a26.47,26.47,0,0,1,10.88-10.32,34.35,34.35,0,0,1,16-3.62,31.41,31.41,0,0,1,16,3.9A24.12,24.12,0,0,1,251,45.05a28.47,28.47,0,0,1,11.64-11.37A35.94,35.94,0,0,1,280,29.57Q293.86,29.57,301.73,37.52Z"/>
          <path class="cls-1" d="M400.68,69.87H339.32q.82,11.44,8.78,18.48t20.08,7A31.65,31.65,0,0,0,380.74,93a27.36,27.36,0,0,0,9.9-7.18l5.58,6.42A31.4,31.4,0,0,1,384,101.11a41.17,41.17,0,0,1-16.1,3.07,40.7,40.7,0,0,1-20-4.81,34.77,34.77,0,0,1-13.6-13.32,38,38,0,0,1-4.88-19.25,39.26,39.26,0,0,1,4.68-19.24,33.8,33.8,0,0,1,12.83-13.25,37.72,37.72,0,0,1,36.61,0,33.6,33.6,0,0,1,12.69,13.18,39.63,39.63,0,0,1,4.6,19.31Zm-53.21-25q-7.19,6.77-8.15,17.64h52q-1-10.87-8.16-17.64t-17.92-6.77A25,25,0,0,0,347.47,44.84Z"/>
          <path class="cls-1" d="M480.38,37.59q8.16,8,8.16,23.36v42.53h-9.9V61.92q0-11.43-5.72-17.43t-16.32-6q-11.85,0-18.75,7T430.94,65v38.49H421V30.12h9.48V43.65a27.63,27.63,0,0,1,11.23-10.39,36,36,0,0,1,16.67-3.69Q472.22,29.57,480.38,37.59Z"/>
          <path class="cls-1" d="M554.09,99a18.88,18.88,0,0,1-6.91,3.84,27.87,27.87,0,0,1-8.57,1.32q-10.32,0-15.9-5.58t-5.58-15.76V38.49H504V30.12h13.11v-16H527v16h22.32v8.37H527V82.28q0,6.57,3.28,10t9.41,3.41a18.25,18.25,0,0,0,5.93-1,14.61,14.61,0,0,0,5-2.79Z"/>
          <path class="cls-1" d="M580.31,99.37a35,35,0,0,1-13.39-13.32A37.92,37.92,0,0,1,562,66.8a37.91,37.91,0,0,1,4.88-19.24,34.51,34.51,0,0,1,13.39-13.25,40.87,40.87,0,0,1,38.21,0,34.14,34.14,0,0,1,13.32,13.25,38.38,38.38,0,0,1,4.81,19.24,38.39,38.39,0,0,1-4.81,19.25,34.65,34.65,0,0,1-13.32,13.32,40.35,40.35,0,0,1-38.21,0Zm33.12-7.53a24.73,24.73,0,0,0,9.69-10.11,31.25,31.25,0,0,0,3.49-14.93,31.23,31.23,0,0,0-3.49-14.92,24.73,24.73,0,0,0-9.69-10.11,29.37,29.37,0,0,0-28,0,25.22,25.22,0,0,0-9.76,10.11,30.7,30.7,0,0,0-3.56,14.92,30.71,30.71,0,0,0,3.56,14.93,25.22,25.22,0,0,0,9.76,10.11,29.44,29.44,0,0,0,28,0Z"/>
          <path class="cls-1" d="M659.45,101.6q-8.16-2.58-12.76-6.48l4.47-7.81a37.5,37.5,0,0,0,11.57,5.92,45.81,45.81,0,0,0,14.51,2.3q10,0,14.85-3.13a10,10,0,0,0,4.81-8.86,8,8,0,0,0-2.65-6.35,17.7,17.7,0,0,0-6.69-3.48,95.1,95.1,0,0,0-10.74-2.3A124.72,124.72,0,0,1,662.45,68a21.07,21.07,0,0,1-9.27-5.93q-3.84-4.19-3.84-11.57,0-9.21,7.67-15.07t21.34-5.85a55.21,55.21,0,0,1,14.23,1.88,39.16,39.16,0,0,1,11.71,4.95l-4.32,8q-9.08-6.27-21.62-6.28-9.48,0-14.29,3.35a10.25,10.25,0,0,0-4.82,8.79A8.67,8.67,0,0,0,662,56.9a16.7,16.7,0,0,0,6.77,3.7A109.32,109.32,0,0,0,679.89,63,126.07,126.07,0,0,1,694,66.39,20.71,20.71,0,0,1,703,72.1q3.76,4.05,3.76,11.16a17.72,17.72,0,0,1-8,15.27q-8,5.66-22.24,5.65A56.37,56.37,0,0,1,659.45,101.6Z"/>
          <path class="cls-1" d="M828.55,0V103.48h-9.48V89a30.27,30.27,0,0,1-11.78,11.3,34.63,34.63,0,0,1-16.53,3.9,37.26,37.26,0,0,1-18.69-4.74A33.88,33.88,0,0,1,759,86.19a39.14,39.14,0,0,1-4.74-19.39A39.13,39.13,0,0,1,759,47.42a33.44,33.44,0,0,1,13.11-13.18,37.63,37.63,0,0,1,18.69-4.67,34.74,34.74,0,0,1,16.11,3.69,30.65,30.65,0,0,1,11.78,10.81V0ZM805.47,91.84a25.31,25.31,0,0,0,9.77-10.11,30.82,30.82,0,0,0,3.55-14.93,30.81,30.81,0,0,0-3.55-14.92,25.31,25.31,0,0,0-9.77-10.11,27.41,27.41,0,0,0-13.87-3.56,27.7,27.7,0,0,0-14,3.56,25.22,25.22,0,0,0-9.76,10.11,30.81,30.81,0,0,0-3.56,14.92,30.82,30.82,0,0,0,3.56,14.93,25.22,25.22,0,0,0,9.76,10.11,27.7,27.7,0,0,0,14,3.55A27.4,27.4,0,0,0,805.47,91.84Z"/>
          <path class="cls-1" d="M920,69.87H858.68q.84,11.44,8.78,18.48t20.09,7A31.6,31.6,0,0,0,900.1,93a27.36,27.36,0,0,0,9.9-7.18l5.58,6.42a31.44,31.44,0,0,1-12.2,8.92,41.22,41.22,0,0,1-16.11,3.07,40.73,40.73,0,0,1-20-4.81,34.68,34.68,0,0,1-13.59-13.32,37.92,37.92,0,0,1-4.88-19.25,39.25,39.25,0,0,1,4.67-19.24,33.8,33.8,0,0,1,12.83-13.25,37.72,37.72,0,0,1,36.61,0,33.6,33.6,0,0,1,12.69,13.18,39.63,39.63,0,0,1,4.6,19.31Zm-53.2-25q-7.19,6.77-8.16,17.64h52q-1-10.87-8.16-17.64t-17.92-6.77A24.92,24.92,0,0,0,866.84,44.84Z"/>
          <path class="cls-1" d="M1039.28,44.63v58.85H1017L1018.92,87c-4.88,11-12.69,18.69-24.69,18.69-17.29,0-26.91-15.07-26.91-33.2,0-22.31,14.36-39.88,40.72-39.88C1019.2,32.64,1030.08,35.7,1039.28,44.63Zm-22.59,6.42a21.84,21.84,0,0,0-8-1.4c-13.81,0-18.27,12.27-18.27,22.87,0,10,3.9,15.34,9.62,15.34C1011.53,87.86,1015.57,68.76,1016.69,51.05Z"/>
          <path class="cls-1" d="M1054.9,80.61V2.51h22.32V78.94c0,5.58,1.25,8.64,5.43,8.64a7.69,7.69,0,0,0,3.21-.69l4.46,15.76a32.76,32.76,0,0,1-13.94,3.07C1059.92,105.72,1054.9,94,1054.9,80.61Z"/>
          <path class="cls-1" d="M1101.76,77.68V52.44h-11.71V34.87h2.09c10.74,0,12.69-7.25,14.22-15.06l1.4-7h16.32v22h19V52.44h-19V73.78c0,8.09,2.92,12.69,10.46,12.69a18.37,18.37,0,0,0,6.69-1.26l4.46,17.58a49.81,49.81,0,0,1-16.45,2.93C1110.69,105.72,1101.76,94.42,1101.76,77.68Z"/>
          <path class="cls-1" d="M1222.68,44.63v58.85h-22.32l2-16.45c-4.89,11-12.7,18.69-24.69,18.69-17.29,0-26.92-15.07-26.92-33.2,0-22.31,14.37-39.88,40.73-39.88C1202.59,32.64,1213.47,35.7,1222.68,44.63Zm-22.6,6.42a21.84,21.84,0,0,0-7.95-1.4c-13.8,0-18.27,12.27-18.27,22.87,0,10,3.91,15.34,9.63,15.34C1194.92,87.86,1199,68.76,1200.08,51.05Z"/>
          <path class="cls-1" d="M66.27,231.69c-5.67,3.91-13.36,7.42-24.84,7.42-23.48,0-37.52-14.44-37.52-35.37s14.31-35.37,37.79-35.37a44.56,44.56,0,0,1,21.47,5.13l-7.56,15a26.73,26.73,0,0,0-11.48-2.57c-11.88,0-17.82,7.7-17.82,17.82S32,221.56,43.86,221.56a26.65,26.65,0,0,0,14-4.18Z"/>
          <path class="cls-1" d="M141.74,180v57h-21.6L122,221c-4.73,10.67-12.29,18.09-23.9,18.09-16.74,0-26-14.58-26-32.13,0-21.6,13.9-38.61,39.42-38.61C122.3,168.37,132.83,171.34,141.74,180Zm-21.87,6.21a21.28,21.28,0,0,0-7.7-1.35c-13.36,0-17.68,11.88-17.68,22.14,0,9.72,3.78,14.85,9.31,14.85C114.87,221.83,118.79,203.34,119.87,186.19Z"/>
          <path class="cls-1" d="M156.86,214.81v-75.6h21.6v74c0,5.4,1.21,8.37,5.26,8.37a7.6,7.6,0,0,0,3.11-.67l4.32,15.25a31.64,31.64,0,0,1-13.5,3C161.72,239.11,156.86,227.77,156.86,214.81Z"/>
          <path class="cls-1" d="M199.52,147.85c0-6.34,4.45-11.88,11.74-11.88S223,141.51,223,147.85s-4.46,11.88-11.75,11.88S199.52,154.2,199.52,147.85Zm.94,22.68h21.6V237h-21.6Z"/>
          <path class="cls-1" d="M304,139.21V237h-21.6L284.3,221c-4.73,10.67-12.29,18.09-23.9,18.09-16.74,0-26-14.58-26-32.13,0-21.6,13.9-38.61,39.42-38.61a59.84,59.84,0,0,1,8.64.68V139.21Zm-21.87,47a21.28,21.28,0,0,0-7.7-1.35c-13.36,0-17.68,11.88-17.68,22.14,0,9.72,3.78,14.85,9.31,14.85C277.14,221.83,281.06,203.34,282.14,186.19Z"/>
          <path class="cls-1" d="M386,180v57h-21.6L366.24,221c-4.72,10.67-12.28,18.09-23.89,18.09-16.74,0-26.06-14.58-26.06-32.13,0-21.6,13.91-38.61,39.42-38.61C366.51,168.37,377,171.34,386,180Zm-21.87,6.21a21.18,21.18,0,0,0-7.69-1.35c-13.37,0-17.69,11.88-17.69,22.14,0,9.72,3.78,14.85,9.32,14.85C359.09,221.83,363,203.34,364.08,186.19Z"/>
          <path class="cls-1" d="M467.22,139.21V237h-21.6L447.51,221c-4.72,10.67-12.28,18.09-23.89,18.09-16.74,0-26.06-14.58-26.06-32.13,0-21.6,13.91-38.61,39.42-38.61a59.73,59.73,0,0,1,8.64.68V139.21Zm-21.87,47a21.18,21.18,0,0,0-7.69-1.35C424.29,184.84,420,196.72,420,207c0,9.72,3.78,14.85,9.32,14.85C440.36,221.83,444.27,203.34,445.35,186.19Z"/>
          <path class="cls-1" d="M585.61,180v57H564l1.9-15.93c-4.73,10.67-12.29,18.09-23.9,18.09-16.74,0-26-14.58-26-32.13,0-21.6,13.9-38.61,39.42-38.61C566.18,168.37,576.7,171.34,585.61,180Zm-21.86,6.21a21.28,21.28,0,0,0-7.7-1.35c-13.36,0-17.68,11.88-17.68,22.14,0,9.72,3.78,14.85,9.31,14.85C558.75,221.83,562.66,203.34,563.75,186.19Z"/>
          <path class="cls-1" d="M600.73,214.81v-75.6h21.6v74c0,5.4,1.22,8.37,5.27,8.37a7.55,7.55,0,0,0,3.1-.67L635,236.14a31.6,31.6,0,0,1-13.5,3C605.59,239.11,600.73,227.77,600.73,214.81Z"/>
          <path class="cls-1" d="M793.51,194.83V237h-21.6v-36c0-8.1-1.89-13.91-8.37-13.91C749,187,747.88,215.35,747.88,237h-21.6v-36c0-8.1-1.89-13.91-8.37-13.91-14.58,0-15.66,28.35-15.66,49.95h-21.6V170.53h21.6l-1.89,14.85c4.73-10.26,12.29-17,24.17-17,11.07,0,18.9,6.08,21.87,16.07,4.86-9.72,12.15-16.07,23.76-16.07C784.6,168.37,793.51,178.63,793.51,194.83Z"/>
          <path class="cls-1" d="M858,217.38l8.37,14.31c-5.67,3.91-13,7.42-24.84,7.42-23.49,0-37-13.77-37-35.37s13.77-35.37,36.18-35.37c16.88,0,27.41,8.24,27.41,24.3a32.5,32.5,0,0,1-3.38,14.85l-37.12,4.19c2.29,5.94,7.56,9.85,16.06,9.85A27.75,27.75,0,0,0,858,217.38Zm-31.18-19.44,20.52-2.43a10.17,10.17,0,0,0,1.08-4.32c0-4.05-3.24-5.81-7.43-5.81C833.47,185.38,828.61,190.92,826.86,197.94Z"/>
          <path class="cls-1" d="M870.73,250.59c7.29-2.7,9.72-7.83,9.72-17.82V170.53h21.6v61.83c0,22.82-10,31.59-27.4,34.16Zm8.78-102.74c0-6.34,4.45-11.88,11.74-11.88S903,141.51,903,147.85s-4.46,11.88-11.75,11.88S879.51,154.2,879.51,147.85Z"/>
          <path class="cls-1" d="M914.34,203.74c0-21.6,13.5-35.37,35.1-35.37s35.1,13.77,35.1,35.37-13.5,35.37-35.1,35.37S914.34,225.34,914.34,203.74Zm47.79,0c0-10.12-3.92-17.82-12.69-17.82s-12.69,7.7-12.69,17.82,3.91,17.82,12.69,17.82S962.13,213.87,962.13,203.74Z"/>
          <path class="cls-1" d="M1049.47,169.72l-6.48,21.2a16,16,0,0,0-6.75-1.49c-17,0-18.09,25.92-18.09,47.52h-21.6V170.53h21.6l-2.7,21.47c3.92-13.64,11.21-23.63,25.38-23.63A27.61,27.61,0,0,1,1049.47,169.72Z"/>
          <path class="cls-1" d="M1164,200.5c0,21.6-13.9,38.61-39.42,38.61a61.3,61.3,0,0,1-8.64-.67v26.05h-21.6v-94h21.6l-1.89,15.8c4.73-10.53,12.29-18,23.9-18C1154.64,168.37,1164,183,1164,200.5Zm-22.41,0c0-9.72-3.78-14.85-9.31-14.85-11.07,0-15,18.5-16.07,35.64a21.28,21.28,0,0,0,7.7,1.35C1137.22,222.64,1141.54,210.76,1141.54,200.5Z"/>
          <path class="cls-1" d="M1229,169.72l-6.48,21.2a16,16,0,0,0-6.75-1.49c-17,0-18.09,25.92-18.09,47.52h-21.6V170.53h21.6L1195,192c3.92-13.64,11.21-23.63,25.38-23.63A27.66,27.66,0,0,1,1229,169.72Z"/>
          <path class="cls-1" d="M1284.1,217.38l8.37,14.31c-5.67,3.91-13,7.42-24.84,7.42-23.49,0-37-13.77-37-35.37s13.77-35.37,36.18-35.37c16.88,0,27.41,8.24,27.41,24.3a32.5,32.5,0,0,1-3.38,14.85l-37.12,4.19c2.29,5.94,7.56,9.85,16.06,9.85A27.75,27.75,0,0,0,1284.1,217.38Zm-31.18-19.44,20.52-2.43a10.17,10.17,0,0,0,1.08-4.32c0-4.05-3.24-5.81-7.43-5.81C1259.53,185.38,1254.67,190.92,1252.92,197.94Z"/>
          <path class="cls-1" d="M1364.7,231.69c-5.67,3.91-13.37,7.42-24.84,7.42-23.49,0-37.53-14.44-37.53-35.37s14.31-35.37,37.8-35.37a44.49,44.49,0,0,1,21.46,5.13l-7.56,15a26.68,26.68,0,0,0-11.47-2.57c-11.88,0-17.82,7.7-17.82,17.82s5.67,17.82,17.55,17.82a26.65,26.65,0,0,0,14-4.18Z"/>
          <path class="cls-1" d="M1375.77,147.85c0-6.34,4.45-11.88,11.74-11.88s11.75,5.54,11.75,11.88-4.46,11.88-11.75,11.88S1375.77,154.2,1375.77,147.85Zm.94,22.68h21.6V237h-21.6Z"/>
          <path class="cls-1" d="M1410.6,203.74c0-21.6,13.5-35.37,35.09-35.37s35.1,13.77,35.1,35.37-13.5,35.37-35.1,35.37S1410.6,225.34,1410.6,203.74Zm47.78,0c0-10.12-3.91-17.82-12.69-17.82s-12.69,7.7-12.69,17.82,3.92,17.82,12.69,17.82S1458.38,213.87,1458.38,203.74Z"/>
          <path class="cls-1" d="M1492.68,226.56c0-7.16,4.59-12.56,12.28-12.56s12.29,5.4,12.29,12.56-4.59,12.55-12.29,12.55S1492.68,233.58,1492.68,226.56Z"/>
        </g>
        <rect class="cls-2" x="9.57" y="356.38" width="686.12" height="126.48" rx="63.19"/>
        <g>
          <path class="cls-1" d="M168.23,417.56a10.77,10.77,0,0,1-4.95,4.74,18.15,18.15,0,0,1-8.51,1.83h-7v16h-8V398.4H155.2a19.21,19.21,0,0,1,8.29,1.62,11.79,11.79,0,0,1,5.06,4.63,13.35,13.35,0,0,1,0,12.91Zm-8.72-1.83a5.35,5.35,0,0,0,1.72-4.41q0-6.13-6.78-6.14h-6.67v12.17h6.67A7,7,0,0,0,159.51,415.73Z"/>
          <path class="cls-1" d="M176.3,401.63a4.51,4.51,0,0,1-1.4-3.44,4.75,4.75,0,0,1,1.4-3.55,5.26,5.26,0,0,1,3.77-1.4,5,5,0,0,1,3.66,1.4,4.75,4.75,0,0,1,1.4,3.55,4.51,4.51,0,0,1-1.4,3.44,5,5,0,0,1-3.66,1.4A5.26,5.26,0,0,1,176.3,401.63Zm7.86,5.38v33.16h-8.4V407Z"/>
          <path class="cls-1" d="M192.23,414.55a15.78,15.78,0,0,1,5.49-6,15,15,0,0,1,7.75-2,13.35,13.35,0,0,1,6.14,1.4,12.68,12.68,0,0,1,4.74,3.76V395.93h8.5v44.24h-8.5v-5.06a10.68,10.68,0,0,1-4.42,4,13.92,13.92,0,0,1-6.46,1.51,15,15,0,0,1-7.75-2.15,15.78,15.78,0,0,1-5.49-6,20.6,20.6,0,0,1-1.93-9A19.78,19.78,0,0,1,192.23,414.55Zm22.93,3.77a8,8,0,0,0-3.23-3.34,8.55,8.55,0,0,0-4.3-1.18,9,9,0,0,0-4.42,1.18,7.92,7.92,0,0,0-3.12,3.34,9.74,9.74,0,0,0-1.29,5.16,10.8,10.8,0,0,0,1.29,5.28,9,9,0,0,0,3.23,3.44,8.37,8.37,0,0,0,4.31,1.19,8.56,8.56,0,0,0,4.3-1.19,8,8,0,0,0,3.23-3.33,12.4,12.4,0,0,0,0-10.77Z"/>
          <path class="cls-1" d="M263.6,426.07H239.38a7.75,7.75,0,0,0,7.75,7.75h.22a7,7,0,0,0,6.67-4.09h9a14.66,14.66,0,0,1-5.59,7.86,15.42,15.42,0,0,1-9.91,3.12,16.26,16.26,0,0,1-8.61-2.16,13.88,13.88,0,0,1-5.92-6,17.23,17.23,0,0,1-2.15-8.94,18.65,18.65,0,0,1,2-9,15.26,15.26,0,0,1,5.92-6,17.43,17.43,0,0,1,8.72-2,16.64,16.64,0,0,1,8.4,2,13.8,13.8,0,0,1,5.81,5.81,17,17,0,0,1,2.05,8.51A15.22,15.22,0,0,1,263.6,426.07Zm-8.39-5.6a6.93,6.93,0,0,0-2.37-5.17,8.35,8.35,0,0,0-5.38-1.72,7.74,7.74,0,0,0-5.17,1.83,8,8,0,0,0-2.69,5.28Z"/>
          <path class="cls-1" d="M284.05,414.55a14.32,14.32,0,0,1,13.14-8.07,13.69,13.69,0,0,1,6.46,1.5,13.18,13.18,0,0,1,4.52,3.77V407h8.39v33.16h-8.39v-5.06a12.45,12.45,0,0,1-4.52,3.88,13.69,13.69,0,0,1-6.46,1.5,14.61,14.61,0,0,1-13.14-8.18,20.78,20.78,0,0,1-2-9A19.94,19.94,0,0,1,284.05,414.55ZM307,418.32a9.48,9.48,0,0,0-3.23-3.34,9,9,0,0,0-4.41-1.18A8.62,8.62,0,0,0,295,415a8.78,8.78,0,0,0-3.23,3.34,10.86,10.86,0,0,0-1.18,5.16,11.88,11.88,0,0,0,1.18,5.28A10.84,10.84,0,0,0,295,432.2a8.61,8.61,0,0,0,8.72,0,9.45,9.45,0,0,0,3.23-3.33,12.4,12.4,0,0,0,0-10.77Z"/>
          <path class="cls-1" d="M338.85,414.55a15.62,15.62,0,0,1,5.49-6,14.91,14.91,0,0,1,7.75-2,13.31,13.31,0,0,1,6.13,1.4,11.86,11.86,0,0,1,4.74,3.76V395.93h8.5v44.24H363v-5.06a10.68,10.68,0,0,1-4.42,4,13.52,13.52,0,0,1-6.45,1.51,15,15,0,0,1-7.75-2.15,15.62,15.62,0,0,1-5.49-6,20.47,20.47,0,0,1-1.94-9A19.66,19.66,0,0,1,338.85,414.55Zm22.92,3.77a8,8,0,0,0-3.23-3.34,8.55,8.55,0,0,0-4.3-1.18,8.27,8.27,0,0,0-4.31,1.18,7.51,7.51,0,0,0-3.23,3.34,9.74,9.74,0,0,0-1.29,5.16,10.8,10.8,0,0,0,1.29,5.28,9.12,9.12,0,0,0,3.23,3.44,8.37,8.37,0,0,0,4.31,1.19,8.56,8.56,0,0,0,4.3-1.19,8,8,0,0,0,3.23-3.33,12.34,12.34,0,0,0,0-10.77Z"/>
          <path class="cls-1" d="M385.78,438.55a14.13,14.13,0,0,1-6-6,17.27,17.27,0,0,1-2.26-8.94,17.46,17.46,0,0,1,2.26-8.93,15.68,15.68,0,0,1,6.14-6,18.72,18.72,0,0,1,17.43,0,15.75,15.75,0,0,1,6.14,6,17.46,17.46,0,0,1,2.26,8.93,17.23,17.23,0,0,1-2.37,8.94,14.62,14.62,0,0,1-6.24,6,16.84,16.84,0,0,1-8.72,2.16A16.21,16.21,0,0,1,385.78,438.55Zm12.92-6.24a7.92,7.92,0,0,0,3.12-3.34,10.79,10.79,0,0,0,1.18-5.38,9.92,9.92,0,0,0-2.47-7.32,8.62,8.62,0,0,0-12.06,0,12.26,12.26,0,0,0-.11,14.64,8.29,8.29,0,0,0,6,2.48A8.89,8.89,0,0,0,398.7,432.31Z"/>
          <path class="cls-1" d="M468.88,410.24A14.25,14.25,0,0,1,472.65,421v19.48h-8.4v-18.3a7.78,7.78,0,0,0-2-5.92,6.9,6.9,0,0,0-5.39-2.15,7.19,7.19,0,0,0-5.38,2.15,8.2,8.2,0,0,0-2,5.92v18.3h-8.19v-18.3a8.15,8.15,0,0,0-2-5.92,7,7,0,0,0-5.38-2.15,7.44,7.44,0,0,0-5.49,2.15,8.19,8.19,0,0,0-1.94,5.92v18.3H418V407h8.4v4a10.66,10.66,0,0,1,4.09-3.23,12.18,12.18,0,0,1,5.6-1.19,14.87,14.87,0,0,1,7,1.62,11.76,11.76,0,0,1,4.74,4.74,10.73,10.73,0,0,1,4.63-4.63,13.13,13.13,0,0,1,6.67-1.73A13.47,13.47,0,0,1,468.88,410.24Z"/>
          <path class="cls-1" d="M481.15,401.63a4.63,4.63,0,0,1-1.51-3.44,5.39,5.39,0,0,1,10.77,0,4.6,4.6,0,0,1-1.51,3.44,5.48,5.48,0,0,1-7.32,0ZM488.9,407v33.16h-8.29V407Z"/>
          <path class="cls-1" d="M497.19,414.55a14.65,14.65,0,0,1,5.81-5.92,16.89,16.89,0,0,1,8.51-2.15,16.09,16.09,0,0,1,10.11,3.12,15,15,0,0,1,5.49,8.61h-9a6.89,6.89,0,0,0-6.67-4.63,7,7,0,0,0-5.71,2.58,11.55,11.55,0,0,0-2,7.43,11.42,11.42,0,0,0,2,7.32,7,7,0,0,0,5.71,2.59,6.36,6.36,0,0,0,6.67-4.53h9.26a15.08,15.08,0,0,1-15.61,11.74,16,16,0,0,1-8.5-2.16,14.61,14.61,0,0,1-5.82-5.92,20.06,20.06,0,0,1,0-18.08Z"/>
          <path class="cls-1" d="M533.79,401.63a4.51,4.51,0,0,1-1.4-3.44,4.71,4.71,0,0,1,1.4-3.55,5.14,5.14,0,0,1,3.77-1.4,5.06,5.06,0,0,1,3.66,1.4,4.75,4.75,0,0,1,1.4,3.55,4.58,4.58,0,0,1-1.4,3.44,5.06,5.06,0,0,1-3.13,1.19A5.17,5.17,0,0,1,533.79,401.63Zm7.86,5.38v33.16h-8.4V407Z"/>
          <path class="cls-1" d="M558.33,395.93v44.24h-8.39V395.93Z"/>
          <path class="cls-1" d="M567.16,401.63a4.27,4.27,0,0,1-1.51-3.44,4.52,4.52,0,0,1,1.51-3.55,5.17,5.17,0,0,1,8.83,3.55,4.63,4.63,0,0,1-1.51,3.44A5.48,5.48,0,0,1,567.16,401.63Zm7.75,5.38v33.16h-8.4V407Z"/>
          <path class="cls-1" d="M589.33,438.55a14.18,14.18,0,0,1-6-6,17.27,17.27,0,0,1-2.26-8.94,17.66,17.66,0,0,1,2.26-8.93,15.75,15.75,0,0,1,6.14-6,18.74,18.74,0,0,1,17.44,0,15.72,15.72,0,0,1,6.13,6,19.17,19.17,0,0,1-.1,17.87,14.64,14.64,0,0,1-6.25,6,16.84,16.84,0,0,1-8.72,2.16A16.26,16.26,0,0,1,589.33,438.55Zm12.92-6.24a7.86,7.86,0,0,0,3.12-3.34,10.69,10.69,0,0,0,1.19-5.38,9.93,9.93,0,0,0-2.48-7.32,8.62,8.62,0,0,0-12.06,0,12.28,12.28,0,0,0-.1,14.64,8.25,8.25,0,0,0,6,2.48,8.81,8.81,0,0,0,4.74-1.08Z"/>
        </g>
        <circle class="cls-1" cx="68.55" cy="420.32" r="32.72"/>
      </g>
      <rect class="cls-1" x="0.7" y="637.72" width="1247.52" height="264" rx="88.94"/>
      <rect class="cls-3" x="0.7" y="760.55" width="726.75" height="141.18" rx="70.59"/>
      <rect class="cls-4" x="521.48" y="760.55" width="726.75" height="141.18" rx="70.59"/>
      <path class="cls-1" d="M619.82,802.12a19.91,19.91,0,0,0-11.63-5.58h-9.76a19,19,0,0,0-5.7.81,26.88,26.88,0,0,0-17.79,25.81A39.24,39.24,0,0,0,578.55,839a82.94,82.94,0,0,0,18.72,25.12,8.55,8.55,0,0,0,3.83,2.21h2.09a8.25,8.25,0,0,0,3.26-1.4c2.09-2.09,4.42-4.19,6.39-6.51a84,84,0,0,0,11.63-15.11,45.51,45.51,0,0,0,5.58-18.61,28.49,28.49,0,0,0-9.53-23.25h0ZM602.26,837a13.6,13.6,0,1,1,13-14.17c0,.19,0,.38,0,.57a13.27,13.27,0,0,1-12.78,13.71h-.25Z"/>
      <g>
        <path class="cls-1" d="M80.25,806h2.87a1.16,1.16,0,0,1,1.29,1q2.2,6.6,4.4,13.2a1.2,1.2,0,0,1-.57,1.66l-5.57,3.7c-.93.62-1,1-.63,2a47.68,47.68,0,0,0,13.25,18.17,45.62,45.62,0,0,0,12.82,7.92c1.08.43,1.43.32,2.09-.65,1.22-1.84,2.44-3.68,3.68-5.52a1.2,1.2,0,0,1,1.7-.58l13.15,4.38a1.17,1.17,0,0,1,1,1.29c0,1.87,0,3.74,0,5.61a9.27,9.27,0,0,1-8.09,8.55,31.4,31.4,0,0,1-6.5-.18A48.94,48.94,0,0,1,103,863.82a51.13,51.13,0,0,1-26.85-22.08,50.39,50.39,0,0,1-6.91-20.08,47.14,47.14,0,0,1-.37-6.5A9.3,9.3,0,0,1,77.7,806c.85,0,1.7,0,2.55,0Z"/>
        <path class="cls-1" d="M134.26,831.69a2.34,2.34,0,0,1-2.14,2.37A2.3,2.3,0,0,1,129.6,832a25.23,25.23,0,0,0-1-5.61c-3.6-11-11-17.66-22.4-19.93-.75-.15-1.52-.2-2.29-.29a2.37,2.37,0,0,1-2.24-2.59,2.34,2.34,0,0,1,2.72-2.08C117.53,803,126.73,809.92,132,822a30,30,0,0,1,2.23,9.3C134.27,831.45,134.26,831.57,134.26,831.69Z"/>
        <path class="cls-1" d="M124.89,831.42a2.43,2.43,0,0,1-2.09,2.64,2.29,2.29,0,0,1-2.55-2A18.85,18.85,0,0,0,104,815.52c-1.75-.23-2.74-1.57-2.25-3.08a2.41,2.41,0,0,1,2.62-1.62,23.6,23.6,0,0,1,20.18,18.6C124.69,830.17,124.81,830.93,124.89,831.42Z"/>
        <path class="cls-1" d="M104.2,820.28a11.84,11.84,0,0,1,4,1.36,13.9,13.9,0,0,1,7.17,9.41,2.35,2.35,0,1,1-4.57,1.06,9.2,9.2,0,0,0-7.19-7.19,2.34,2.34,0,0,1,.61-4.64Z"/>
      </g>
      <g>
        <path d="M259.06,701.77a11.15,11.15,0,0,1,3.26,8.25,12.22,12.22,0,0,1-1.81,6.56,12.51,12.51,0,0,1-5.41,4.65,20.23,20.23,0,0,1-8.79,1.72,27.78,27.78,0,0,1-8.7-1.36,18.44,18.44,0,0,1-6.83-3.77l2.78-4.78a16,16,0,0,0,5.56,3.3,20.85,20.85,0,0,0,7.19,1.23q4.71,0,7.34-2a6.53,6.53,0,0,0,2.63-5.5,6.4,6.4,0,0,0-2.6-5.44c-1.73-1.28-4.35-1.93-7.85-1.93h-3.39v-4.23l10.64-13.05H232.71v-5.26h27.92v4.11l-11.06,13.66Q255.8,698.54,259.06,701.77Z"/>
        <path d="M281.05,680.17v42.3h-6v-37h-9.55v-5.26Z"/>
        <path d="M298.66,720.38a17.2,17.2,0,0,1-6.13-7.46,31.16,31.16,0,0,1,0-23.2,17.2,17.2,0,0,1,6.13-7.46,16.63,16.63,0,0,1,17.76,0,17.21,17.21,0,0,1,6.14,7.46,31.29,31.29,0,0,1,0,23.2,17.21,17.21,0,0,1-6.14,7.46,16.63,16.63,0,0,1-17.76,0Zm17-7q3-4.15,3.05-12.08t-3.05-12.08a10.06,10.06,0,0,0-16.31,0q-3.06,4.17-3.06,12.08t3.06,12.08a10.06,10.06,0,0,0,16.31,0Z"/>
        <path d="M372.25,700.44a11.33,11.33,0,0,1,4.26,9.34,13,13,0,0,1-1.78,6.74,12.18,12.18,0,0,1-5.38,4.71A20.39,20.39,0,0,1,360.5,723a27.59,27.59,0,0,1-8.64-1.36,19.05,19.05,0,0,1-6.89-3.77l2.78-4.78a16,16,0,0,0,5.56,3.3,20.67,20.67,0,0,0,7.13,1.23q4.77,0,7.4-2a6.61,6.61,0,0,0,2.63-5.53,6.53,6.53,0,0,0-2.9-5.77q-2.91-2-9.91-2h-9.61l2.24-22.12h23.86v5.26H355.36L354.21,697h4.72Q368,697,372.25,700.44Z"/>
        <path d="M412.94,704.28a10.12,10.12,0,0,1,1.93,6.22,10.9,10.9,0,0,1-2.05,6.62,13,13,0,0,1-5.86,4.32A24.12,24.12,0,0,1,398,723a23.63,23.63,0,0,1-8.85-1.51,12.94,12.94,0,0,1-5.83-4.32,10.91,10.91,0,0,1-2.06-6.62,10.3,10.3,0,0,1,1.9-6.22,12,12,0,0,1,5.53-4,10.58,10.58,0,0,1-4.41-3.68,9.64,9.64,0,0,1-1.51-5.44,10.1,10.1,0,0,1,1.9-6.1,12.09,12.09,0,0,1,5.35-4,21.37,21.37,0,0,1,8-1.39,21.7,21.7,0,0,1,8.06,1.39,12,12,0,0,1,5.38,4,10,10,0,0,1,1.9,6.1,9.54,9.54,0,0,1-1.54,5.41,10.58,10.58,0,0,1-4.44,3.71A12.15,12.15,0,0,1,412.94,704.28Zm-7,11.69a6.6,6.6,0,0,0,2.9-5.65,6.39,6.39,0,0,0-2.9-5.52,13.6,13.6,0,0,0-7.91-2c-3.35,0-6,.68-7.86,2a6.43,6.43,0,0,0-2.84,5.52,6.65,6.65,0,0,0,2.84,5.65c1.9,1.39,4.51,2.09,7.86,2.09A13.31,13.31,0,0,0,405.93,716Zm-14.68-29.54a6.24,6.24,0,0,0,0,9.94,11.21,11.21,0,0,0,6.8,1.81,11.58,11.58,0,0,0,6.91-1.81,6.13,6.13,0,0,0-.06-9.94,11.49,11.49,0,0,0-6.85-1.84A11.1,11.1,0,0,0,391.25,686.43Z"/>
        <path d="M451.85,704.28a10.12,10.12,0,0,1,1.93,6.22,10.9,10.9,0,0,1-2,6.62,13,13,0,0,1-5.86,4.32,24.12,24.12,0,0,1-8.94,1.51,23.72,23.72,0,0,1-8.86-1.51,13,13,0,0,1-5.83-4.32,10.9,10.9,0,0,1-2.05-6.62,10.23,10.23,0,0,1,1.9-6.22,12,12,0,0,1,5.53-4,10.58,10.58,0,0,1-4.41-3.68,9.64,9.64,0,0,1-1.51-5.44,10,10,0,0,1,1.9-6.1,12,12,0,0,1,5.35-4,21.37,21.37,0,0,1,8-1.39,21.7,21.7,0,0,1,8.06,1.39,12,12,0,0,1,5.38,4,10,10,0,0,1,1.9,6.1,9.54,9.54,0,0,1-1.54,5.41,10.71,10.71,0,0,1-4.44,3.71A12.15,12.15,0,0,1,451.85,704.28Zm-7,11.69a6.6,6.6,0,0,0,2.9-5.65,6.39,6.39,0,0,0-2.9-5.52,13.6,13.6,0,0,0-7.91-2q-5,0-7.86,2a6.43,6.43,0,0,0-2.84,5.52,6.65,6.65,0,0,0,2.84,5.65q2.83,2.09,7.86,2.09A13.31,13.31,0,0,0,444.84,716Zm-14.68-29.54a6.24,6.24,0,0,0,0,9.94,11.21,11.21,0,0,0,6.8,1.81,11.58,11.58,0,0,0,6.91-1.81,6.13,6.13,0,0,0-.06-9.94,11.49,11.49,0,0,0-6.85-1.84A11.1,11.1,0,0,0,430.16,686.43Z"/>
        <path d="M512.39,712.08h-8v10.39h-5.86V712.08H475v-4.23l21.63-27.68h6.52l-20.72,26.71h16.25V697.7h5.68v9.18h8Z"/>
        <path d="M548,704.28A10.13,10.13,0,0,1,550,710.5a10.91,10.91,0,0,1-2.06,6.62,13,13,0,0,1-5.86,4.32,24.08,24.08,0,0,1-8.94,1.51,23.7,23.7,0,0,1-8.85-1.51,13,13,0,0,1-5.83-4.32,10.91,10.91,0,0,1-2.06-6.62,10.24,10.24,0,0,1,1.91-6.22,12,12,0,0,1,5.53-4,10.45,10.45,0,0,1-4.41-3.68,9.64,9.64,0,0,1-1.51-5.44,10,10,0,0,1,1.9-6.1,12,12,0,0,1,5.35-4,21.28,21.28,0,0,1,8-1.39,21.79,21.79,0,0,1,8.07,1.39,12,12,0,0,1,5.37,4,10,10,0,0,1,1.91,6.1,9.61,9.61,0,0,1-1.54,5.41,10.71,10.71,0,0,1-4.44,3.71A12.17,12.17,0,0,1,548,704.28ZM541,716a6.6,6.6,0,0,0,2.9-5.65,6.39,6.39,0,0,0-2.9-5.52,13.66,13.66,0,0,0-7.92-2q-5,0-7.85,2a6.41,6.41,0,0,0-2.84,5.52,6.62,6.62,0,0,0,2.84,5.65q2.84,2.09,7.85,2.09A13.36,13.36,0,0,0,541,716Zm-14.69-29.54a6.26,6.26,0,0,0,0,9.94,11.21,11.21,0,0,0,6.8,1.81,11.61,11.61,0,0,0,6.92-1.81,6.13,6.13,0,0,0-.06-9.94,11.52,11.52,0,0,0-6.86-1.84A11.12,11.12,0,0,0,526.34,686.43Z"/>
        <path d="M580.93,700.44a11.33,11.33,0,0,1,4.26,9.34,12.91,12.91,0,0,1-1.78,6.74,12.18,12.18,0,0,1-5.38,4.71,20.39,20.39,0,0,1-8.85,1.72,27.59,27.59,0,0,1-8.64-1.36,19.13,19.13,0,0,1-6.89-3.77l2.78-4.78a16,16,0,0,0,5.56,3.3,20.71,20.71,0,0,0,7.13,1.23q4.77,0,7.4-2a6.61,6.61,0,0,0,2.63-5.53,6.53,6.53,0,0,0-2.9-5.77c-1.93-1.31-5.24-2-9.91-2h-9.61L559,680.17h23.86v5.26H564L562.9,697h4.71Q576.67,697,580.93,700.44Z"/>
        <path d="M615.58,701.77a11.11,11.11,0,0,1,3.26,8.25,12.22,12.22,0,0,1-1.81,6.56,12.51,12.51,0,0,1-5.41,4.65,20.17,20.17,0,0,1-8.79,1.72,27.78,27.78,0,0,1-8.7-1.36,18.4,18.4,0,0,1-6.82-3.77l2.78-4.78a16,16,0,0,0,5.55,3.3,20.93,20.93,0,0,0,7.19,1.23q4.71,0,7.34-2a6.5,6.5,0,0,0,2.63-5.5,6.38,6.38,0,0,0-2.6-5.44c-1.73-1.28-4.35-1.93-7.85-1.93H599v-4.23l10.63-13.05H589.24v-5.26h27.91v4.11l-11,13.66C610.24,698.34,613.41,699.62,615.58,701.77Z"/>
        <path d="M641.26,703.38h16.25v5H641.26Z"/>
        <path d="M705.78,701.77a11.12,11.12,0,0,1,3.27,8.25,12.31,12.31,0,0,1-1.81,6.56,12.57,12.57,0,0,1-5.41,4.65A20.23,20.23,0,0,1,693,723a27.78,27.78,0,0,1-8.7-1.36,18.44,18.44,0,0,1-6.83-3.77l2.78-4.78a16,16,0,0,0,5.56,3.3,20.85,20.85,0,0,0,7.19,1.23q4.71,0,7.34-2a6.53,6.53,0,0,0,2.63-5.5,6.4,6.4,0,0,0-2.6-5.44c-1.73-1.28-4.35-1.93-7.86-1.93h-3.38v-4.23l10.63-13.05H679.44v-5.26h27.92v4.11L696.3,697.94Q702.53,698.54,705.78,701.77Z"/>
        <path d="M727.78,680.17v42.3h-6v-37h-9.55v-5.26Z"/>
        <path d="M745.39,720.38a17.2,17.2,0,0,1-6.13-7.46,31.16,31.16,0,0,1,0-23.2,17.2,17.2,0,0,1,6.13-7.46,16.63,16.63,0,0,1,17.76,0,17.2,17.2,0,0,1,6.13,7.46,31.16,31.16,0,0,1,0,23.2,17.2,17.2,0,0,1-6.13,7.46,16.63,16.63,0,0,1-17.76,0Zm17-7q3-4.15,3.05-12.08t-3.05-12.08a10.07,10.07,0,0,0-16.32,0q-3,4.17-3.05,12.08t3.05,12.08a10.07,10.07,0,0,0,16.32,0Z"/>
        <path d="M819,700.44a11.33,11.33,0,0,1,4.26,9.34,12.91,12.91,0,0,1-1.79,6.74,12.15,12.15,0,0,1-5.37,4.71,20.39,20.39,0,0,1-8.85,1.72,27.55,27.55,0,0,1-8.64-1.36,19.05,19.05,0,0,1-6.89-3.77l2.78-4.78a16,16,0,0,0,5.56,3.3,20.67,20.67,0,0,0,7.13,1.23c3.18,0,5.64-.67,7.4-2a6.6,6.6,0,0,0,2.62-5.53,6.51,6.51,0,0,0-2.9-5.77q-2.89-2-9.9-2h-9.61L797,680.17h23.86v5.26H802.09L800.94,697h4.71Q814.73,697,819,700.44Z"/>
        <path d="M859.67,704.28a10.12,10.12,0,0,1,1.93,6.22,10.9,10.9,0,0,1-2.05,6.62,13,13,0,0,1-5.86,4.32,24.14,24.14,0,0,1-9,1.51,23.7,23.7,0,0,1-8.85-1.51,13,13,0,0,1-5.83-4.32,10.9,10.9,0,0,1-2-6.62,10.23,10.23,0,0,1,1.9-6.22,12,12,0,0,1,5.53-4,10.58,10.58,0,0,1-4.41-3.68,9.64,9.64,0,0,1-1.51-5.44,10,10,0,0,1,1.9-6.1,12,12,0,0,1,5.35-4,21.32,21.32,0,0,1,8-1.39,21.75,21.75,0,0,1,8.07,1.39,12,12,0,0,1,5.38,4,10,10,0,0,1,1.9,6.1,9.54,9.54,0,0,1-1.54,5.41,10.71,10.71,0,0,1-4.44,3.71A12.15,12.15,0,0,1,859.67,704.28Zm-7,11.69a6.6,6.6,0,0,0,2.9-5.65,6.39,6.39,0,0,0-2.9-5.52,13.62,13.62,0,0,0-7.92-2q-5,0-7.85,2a6.43,6.43,0,0,0-2.84,5.52,6.65,6.65,0,0,0,2.84,5.65q2.83,2.09,7.85,2.09A13.32,13.32,0,0,0,852.66,716ZM838,686.43a6.24,6.24,0,0,0,0,9.94,11.18,11.18,0,0,0,6.79,1.81,11.61,11.61,0,0,0,6.92-1.81,6.13,6.13,0,0,0-.06-9.94,11.52,11.52,0,0,0-6.86-1.84A11.07,11.07,0,0,0,838,686.43Z"/>
        <path d="M898.58,704.28a10.12,10.12,0,0,1,1.93,6.22,10.9,10.9,0,0,1-2,6.62,13,13,0,0,1-5.86,4.32,24.14,24.14,0,0,1-9,1.51,23.7,23.7,0,0,1-8.85-1.51,13,13,0,0,1-5.83-4.32,10.9,10.9,0,0,1-2.05-6.62,10.23,10.23,0,0,1,1.9-6.22,12,12,0,0,1,5.53-4,10.58,10.58,0,0,1-4.41-3.68,9.64,9.64,0,0,1-1.51-5.44,10,10,0,0,1,1.9-6.1,12,12,0,0,1,5.35-4,21.28,21.28,0,0,1,8-1.39,21.79,21.79,0,0,1,8.07,1.39,12,12,0,0,1,5.38,4,10,10,0,0,1,1.9,6.1,9.54,9.54,0,0,1-1.54,5.41,10.71,10.71,0,0,1-4.44,3.71A12.15,12.15,0,0,1,898.58,704.28Zm-7,11.69a6.6,6.6,0,0,0,2.9-5.65,6.39,6.39,0,0,0-2.9-5.52,13.62,13.62,0,0,0-7.92-2q-5,0-7.85,2a6.43,6.43,0,0,0-2.84,5.52A6.65,6.65,0,0,0,875.8,716q2.84,2.09,7.85,2.09A13.32,13.32,0,0,0,891.57,716Zm-14.68-29.54a6.24,6.24,0,0,0,0,9.94,11.18,11.18,0,0,0,6.79,1.81,11.61,11.61,0,0,0,6.92-1.81,6.13,6.13,0,0,0-.06-9.94,11.52,11.52,0,0,0-6.86-1.84A11.07,11.07,0,0,0,876.89,686.43Z"/>
        <path d="M959.12,712.08h-8v10.39h-5.86V712.08h-23.5v-4.23l21.63-27.68h6.52l-20.72,26.71H945.4V697.7h5.68v9.18h8Z"/>
        <path d="M994.76,704.28a10.13,10.13,0,0,1,1.94,6.22,10.91,10.91,0,0,1-2.06,6.62,13,13,0,0,1-5.86,4.32,24.12,24.12,0,0,1-8.94,1.51,23.67,23.67,0,0,1-8.85-1.51,13,13,0,0,1-5.83-4.32,10.91,10.91,0,0,1-2.06-6.62,10.24,10.24,0,0,1,1.91-6.22,11.92,11.92,0,0,1,5.52-4,10.58,10.58,0,0,1-4.41-3.68,9.72,9.72,0,0,1-1.51-5.44,10,10,0,0,1,1.91-6.1,12.05,12.05,0,0,1,5.34-4,21.37,21.37,0,0,1,8-1.39,21.7,21.7,0,0,1,8.06,1.39,12,12,0,0,1,5.38,4,10,10,0,0,1,1.91,6.1,9.54,9.54,0,0,1-1.55,5.41,10.58,10.58,0,0,1-4.44,3.71A12.15,12.15,0,0,1,994.76,704.28Zm-7,11.69a6.58,6.58,0,0,0,2.9-5.65,6.37,6.37,0,0,0-2.9-5.52,13.6,13.6,0,0,0-7.91-2c-3.35,0-6,.68-7.86,2a6.43,6.43,0,0,0-2.84,5.52A6.65,6.65,0,0,0,972,716c1.9,1.39,4.51,2.09,7.86,2.09A13.31,13.31,0,0,0,987.75,716Zm-14.68-29.54a6.24,6.24,0,0,0,0,9.94,11.21,11.21,0,0,0,6.8,1.81,11.63,11.63,0,0,0,6.92-1.81,6.15,6.15,0,0,0-.06-9.94,11.54,11.54,0,0,0-6.86-1.84A11.1,11.1,0,0,0,973.07,686.43Z"/>
        <path d="M1015.36,680.17v42.3h-6v-37h-9.54v-5.26Z"/>
        <path d="M1056,704.28a10.19,10.19,0,0,1,1.93,6.22,11,11,0,0,1-2,6.62,13,13,0,0,1-5.87,4.32,24,24,0,0,1-8.94,1.51,23.7,23.7,0,0,1-8.85-1.51,13,13,0,0,1-5.83-4.32,10.9,10.9,0,0,1-2.05-6.62,10.23,10.23,0,0,1,1.9-6.22,12,12,0,0,1,5.53-4,10.45,10.45,0,0,1-4.41-3.68,9.64,9.64,0,0,1-1.51-5.44,10,10,0,0,1,1.9-6.1,12,12,0,0,1,5.35-4,21.28,21.28,0,0,1,8-1.39,21.79,21.79,0,0,1,8.07,1.39,12.07,12.07,0,0,1,5.38,4,10.1,10.1,0,0,1,1.9,6.1,9.54,9.54,0,0,1-1.54,5.41,10.71,10.71,0,0,1-4.44,3.71A12.2,12.2,0,0,1,1056,704.28ZM1049,716a6.6,6.6,0,0,0,2.9-5.65,6.39,6.39,0,0,0-2.9-5.52,13.64,13.64,0,0,0-7.92-2q-5,0-7.85,2a6.41,6.41,0,0,0-2.84,5.52,6.62,6.62,0,0,0,2.84,5.65q2.84,2.09,7.85,2.09A13.34,13.34,0,0,0,1049,716Zm-14.68-29.54a6.24,6.24,0,0,0,0,9.94,11.18,11.18,0,0,0,6.79,1.81,11.61,11.61,0,0,0,6.92-1.81,6.13,6.13,0,0,0-.06-9.94,11.52,11.52,0,0,0-6.86-1.84A11.07,11.07,0,0,0,1034.34,686.43Z"/>
      </g>
      <g>
        <circle class="cls-5" cx="158.82" cy="698.54" r="41.27"/>
        <g>
          <path class="cls-1" d="M163.74,677.3h-9.86c-.78,0-1.4.17-1.37,1.08s.61,1,1.34,1c1.63,0,3.25,0,4.87,0s3.33,0,5,0c.76,0,1.42-.12,1.43-1S164.51,677.29,163.74,677.3Zm0,0h-9.86c-.78,0-1.4.17-1.37,1.08s.61,1,1.34,1c1.63,0,3.25,0,4.87,0s3.33,0,5,0c.76,0,1.42-.12,1.43-1S164.51,677.29,163.74,677.3Zm12.07,1.42a5.36,5.36,0,0,0-3.4-5.35c-.33-.13-.78.09-1-.35H146c-3.3,1.16-4.25,3.59-4.21,6.94.13,11,.05,21.92.05,32.87,0,2,0,4,0,6a5.1,5.1,0,0,0,3.3,4.83c.23.1.54.08.63.41h25.64c3.69-1.54,4.39-2.62,4.39-6.83V678.72Zm-31.87,1.73c.07-.67,0-1.36,0-2a3.11,3.11,0,0,1,3.15-3.28q11.73-.06,23.47,0a3.12,3.12,0,0,1,3.11,3.32c0,.76-.05,1.52,0,2.27s-.25.86-.91.86c-4.68,0-9.37,0-14.06,0s-9.14,0-13.71,0C144.1,681.6,143.85,681.31,143.94,680.45Zm29.75,18.1c0,4.64,0,9.29,0,13.94,0,.71-.15.94-.91.94q-14,0-28,0c-.73,0-.85-.21-.85-.88q0-14,0-28c0-.67.12-.88.85-.88q14,0,28,0c.77,0,.92.23.92.94C173.67,689.25,173.69,693.9,173.69,698.55Zm0,18a17.36,17.36,0,0,0,0,2,3.17,3.17,0,0,1-3.42,3.38c-4.16,0-8.31,0-12.47,0H147.6c-2.4,0-3.66-1.24-3.63-3.6,0-.93-.44-2.16.21-2.69s1.73-.15,2.63-.15h12c4.61,0,9.22,0,13.83,0C173.5,715.5,173.81,715.7,173.71,716.56Zm-19.86-37.18c1.63,0,3.25,0,4.87,0s3.33,0,5,0c.76,0,1.42-.12,1.43-1s-.63-1.06-1.4-1.05h-9.86c-.78,0-1.4.17-1.37,1.08S153.12,679.39,153.85,679.38Zm5.05,37.24a2.14,2.14,0,1,0,2,2.16A2.2,2.2,0,0,0,158.9,716.62Z"/>
          <path class="cls-1" d="M160.94,718.78a2.12,2.12,0,1,1-2-2.16A2.19,2.19,0,0,1,160.94,718.78Z"/>
          <path class="cls-1" d="M165.14,678.35c0,.91-.67,1-1.43,1-1.66,0-3.32,0-5,0s-3.24,0-4.87,0c-.73,0-1.32-.17-1.34-1s.59-1.09,1.37-1.08h9.86C164.51,677.29,165.15,677.43,165.14,678.35Z"/>
          <path class="cls-1" d="M160.94,718.78a2.12,2.12,0,1,1-2-2.16A2.19,2.19,0,0,1,160.94,718.78Z"/>
          <path class="cls-1" d="M165.14,678.35c0,.91-.67,1-1.43,1-1.66,0-3.32,0-5,0s-3.24,0-4.87,0c-.73,0-1.32-.17-1.34-1s.59-1.09,1.37-1.08h9.86C164.51,677.29,165.15,677.43,165.14,678.35Z"/>
        </g>
      </g>
      <g>
        <path class="cls-1" d="M187.17,831.33a9.39,9.39,0,0,1,5.49,8.77,9.83,9.83,0,0,1-1.53,5.47,10.28,10.28,0,0,1-4.19,3.65,13.54,13.54,0,0,1-6,1.29q-6.65,0-10.25-4.28t-3.6-12.16a20.83,20.83,0,0,1,1.95-9.41,13.71,13.71,0,0,1,5.47-5.89,16.28,16.28,0,0,1,8.18-2,19.82,19.82,0,0,1,4.52.49,12.51,12.51,0,0,1,3.68,1.44l-1.79,3.68a11.31,11.31,0,0,0-6.32-1.56,10.41,10.41,0,0,0-8.06,3.18q-2.92,3.18-2.92,9.27a11.39,11.39,0,0,0,0,1.17,8.88,8.88,0,0,1,3.89-3.22,14.54,14.54,0,0,1,11.4.11ZM186.06,845a5.83,5.83,0,0,0,2-4.66,5.72,5.72,0,0,0-2.05-4.64,8.26,8.26,0,0,0-5.49-1.72,8.88,8.88,0,0,0-3.94.84,6.74,6.74,0,0,0-2.68,2.31,5.74,5.74,0,0,0-1,3.25,5.82,5.82,0,0,0,.92,3.19,6.61,6.61,0,0,0,2.69,2.31,9.46,9.46,0,0,0,4.22.87A7.76,7.76,0,0,0,186.06,845Z"/>
        <path class="cls-1" d="M202.72,848.51a13.39,13.39,0,0,1-4.78-5.82,24.41,24.41,0,0,1,0-18.1,13.51,13.51,0,0,1,4.78-5.82,13,13,0,0,1,13.86,0,13.44,13.44,0,0,1,4.78,5.82,24.28,24.28,0,0,1,0,18.1,13.32,13.32,0,0,1-4.78,5.82,13,13,0,0,1-13.86,0ZM216,843.07q2.38-3.26,2.38-9.43c0-4.11-.79-7.26-2.38-9.42a7.83,7.83,0,0,0-12.72,0c-1.59,2.16-2.38,5.31-2.38,9.42s.79,7.26,2.38,9.43a7.85,7.85,0,0,0,12.72,0Z"/>
        <path class="cls-1" d="M237.72,817.15v33h-4.67V821.25h-7.44v-4.1Z"/>
        <path class="cls-1" d="M277.66,831.33a9.39,9.39,0,0,1,5.49,8.77,9.83,9.83,0,0,1-1.53,5.47,10.24,10.24,0,0,1-4.2,3.65,13.47,13.47,0,0,1-6,1.29q-6.65,0-10.25-4.28t-3.6-12.16a20.83,20.83,0,0,1,1.95-9.41,13.71,13.71,0,0,1,5.47-5.89,16.28,16.28,0,0,1,8.18-2,19.82,19.82,0,0,1,4.52.49,12.62,12.62,0,0,1,3.68,1.44l-1.79,3.68a11.33,11.33,0,0,0-6.32-1.56,10.4,10.4,0,0,0-8.06,3.18q-2.92,3.18-2.92,9.27a9.09,9.09,0,0,0,.05,1.17,8.86,8.86,0,0,1,3.88-3.22,14.56,14.56,0,0,1,11.41.11ZM276.55,845a5.83,5.83,0,0,0,2-4.66,5.72,5.72,0,0,0-2.05-4.64,8.26,8.26,0,0,0-5.49-1.72,8.88,8.88,0,0,0-3.94.84,6.74,6.74,0,0,0-2.68,2.31,5.74,5.74,0,0,0-1,3.25,5.82,5.82,0,0,0,.92,3.19,6.61,6.61,0,0,0,2.69,2.31,9.41,9.41,0,0,0,4.21.87A7.77,7.77,0,0,0,276.55,845Z"/>
        <path class="cls-1" d="M307.63,821.06q3.62,4.29,3.61,12.16a20.66,20.66,0,0,1-2,9.4,13.58,13.58,0,0,1-5.46,5.89,16.2,16.2,0,0,1-8.18,2,20,20,0,0,1-4.53-.49,12.55,12.55,0,0,1-3.67-1.44l1.79-3.67a11.6,11.6,0,0,0,6.36,1.55,10.34,10.34,0,0,0,8-3.18q2.89-3.18,2.9-9.26v-1.18a9,9,0,0,1-3.92,3.23,13.62,13.62,0,0,1-5.6,1.11,13.3,13.3,0,0,1-5.82-1.23,9.41,9.41,0,0,1-4-3.51,9.65,9.65,0,0,1-1.44-5.25,9.81,9.81,0,0,1,1.53-5.47,10.21,10.21,0,0,1,4.17-3.65,13.22,13.22,0,0,1,5.94-1.3Q304,816.77,307.63,821.06Zm-5.86,11.45a6.62,6.62,0,0,0,2.71-2.31,6,6,0,0,0,0-6.43,6.5,6.5,0,0,0-2.68-2.31,9.59,9.59,0,0,0-4.27-.87,7.7,7.7,0,0,0-5.25,1.74,5.87,5.87,0,0,0-2,4.67,5.78,5.78,0,0,0,2,4.64,8.15,8.15,0,0,0,5.47,1.72A8.92,8.92,0,0,0,301.77,832.51Z"/>
        <path class="cls-1" d="M335.58,833a8.8,8.8,0,0,1,3.32,7.28,10.06,10.06,0,0,1-1.39,5.26,9.41,9.41,0,0,1-4.19,3.67,15.86,15.86,0,0,1-6.91,1.34,21.55,21.55,0,0,1-6.74-1.06,14.89,14.89,0,0,1-5.37-2.94l2.17-3.72a12.51,12.51,0,0,0,4.34,2.56,15.86,15.86,0,0,0,5.56,1,9.29,9.29,0,0,0,5.77-1.58,5.14,5.14,0,0,0,2.05-4.31,5.08,5.08,0,0,0-2.26-4.5q-2.26-1.53-7.73-1.53h-7.5l1.75-17.25h18.61v4.1H322.41l-.9,9h3.68Q332.26,830.3,335.58,833Z"/>
        <path class="cls-1" d="M378.68,846v4.1H355v-3.21l13.44-13a16,16,0,0,0,3.29-4.07,7.75,7.75,0,0,0,.85-3.47,4.84,4.84,0,0,0-1.81-4,8.22,8.22,0,0,0-5.21-1.44q-5.46,0-8.44,3.59l-3.2-2.78a12.81,12.81,0,0,1,5.07-3.68,17.85,17.85,0,0,1,7-1.32,12.74,12.74,0,0,1,8.25,2.47,8.19,8.19,0,0,1,3.07,6.72,11.34,11.34,0,0,1-1.14,5,19.93,19.93,0,0,1-4.28,5.37L361.76,846Z"/>
        <path class="cls-1" d="M402.46,831.33A9.39,9.39,0,0,1,408,840.1a9.83,9.83,0,0,1-1.53,5.47,10.3,10.3,0,0,1-4.2,3.65,13.47,13.47,0,0,1-6,1.29q-6.64,0-10.25-4.28t-3.61-12.16a20.7,20.7,0,0,1,2-9.41,13.59,13.59,0,0,1,5.47-5.89,16.24,16.24,0,0,1,8.17-2,19.91,19.91,0,0,1,4.53.49,12.44,12.44,0,0,1,3.67,1.44l-1.79,3.68a11.27,11.27,0,0,0-6.31-1.56A10.4,10.4,0,0,0,390,824q-2.93,3.18-2.92,9.27c0,.5,0,.89,0,1.17a8.94,8.94,0,0,1,3.89-3.22,14.56,14.56,0,0,1,11.41.11ZM401.35,845a5.83,5.83,0,0,0,2-4.66,5.75,5.75,0,0,0-2.05-4.64,8.27,8.27,0,0,0-5.5-1.72,8.86,8.86,0,0,0-3.93.84,6.77,6.77,0,0,0-2.69,2.31,5.81,5.81,0,0,0-1,3.25,5.74,5.74,0,0,0,.92,3.19,6.58,6.58,0,0,0,2.68,2.31,9.49,9.49,0,0,0,4.22.87A7.77,7.77,0,0,0,401.35,845Z"/>
        <path class="cls-1" d="M418,848.51a13.41,13.41,0,0,1-4.79-5.82,24.41,24.41,0,0,1,0-18.1,13.52,13.52,0,0,1,4.79-5.82,13,13,0,0,1,13.85,0,13.46,13.46,0,0,1,4.79,5.82,24.41,24.41,0,0,1,0,18.1,13.34,13.34,0,0,1-4.79,5.82,13,13,0,0,1-13.85,0Zm13.29-5.44q2.38-3.26,2.38-9.43c0-4.11-.79-7.26-2.38-9.42a7.84,7.84,0,0,0-12.73,0c-1.58,2.16-2.38,5.31-2.38,9.42s.8,7.26,2.38,9.43a7.86,7.86,0,0,0,12.73,0Z"/>
        <path class="cls-1" d="M463,831.33a9.39,9.39,0,0,1,5.49,8.77,9.83,9.83,0,0,1-1.53,5.47,10.24,10.24,0,0,1-4.2,3.65,13.47,13.47,0,0,1-6,1.29q-6.64,0-10.25-4.28t-3.6-12.16a20.83,20.83,0,0,1,1.95-9.41,13.71,13.71,0,0,1,5.47-5.89,16.28,16.28,0,0,1,8.18-2,19.82,19.82,0,0,1,4.52.49,12.62,12.62,0,0,1,3.68,1.44l-1.79,3.68a11.33,11.33,0,0,0-6.32-1.56,10.41,10.41,0,0,0-8.06,3.18q-2.93,3.18-2.92,9.27a9.09,9.09,0,0,0,.05,1.17,8.86,8.86,0,0,1,3.88-3.22,14.56,14.56,0,0,1,11.41.11ZM461.86,845a5.83,5.83,0,0,0,2-4.66,5.72,5.72,0,0,0-2.05-4.64,8.26,8.26,0,0,0-5.49-1.72,8.88,8.88,0,0,0-3.94.84,6.74,6.74,0,0,0-2.68,2.31,5.74,5.74,0,0,0-1,3.25,5.82,5.82,0,0,0,.92,3.19,6.61,6.61,0,0,0,2.69,2.31,9.41,9.41,0,0,0,4.21.87A7.77,7.77,0,0,0,461.86,845Z"/>
      </g>
      <g>
        <path class="cls-1" d="M680.33,802.25H670.4v-4.7h25.43v4.7H685.9v25.26h-5.57Z"/>
        <path class="cls-1" d="M712.18,804.39v5.1a7.13,7.13,0,0,0-6.12,1.69,7.25,7.25,0,0,0-1.76,5.24v11.09H699V804.65h5.1V808Q706.36,804.39,712.18,804.39Z"/>
        <path class="cls-1" d="M733.05,806.81q2.67,2.43,2.67,7.3v13.4h-5.05v-2.78a6.2,6.2,0,0,1-2.8,2.29,11,11,0,0,1-4.39.79,10.64,10.64,0,0,1-4.49-.88,6.91,6.91,0,0,1-3-2.44,6.18,6.18,0,0,1-1-3.53,6.07,6.07,0,0,1,2.29-4.94c1.53-1.24,3.93-1.87,7.22-1.87h5.9v-.34a4.7,4.7,0,0,0-1.43-3.68,6.2,6.2,0,0,0-4.26-1.28,12.26,12.26,0,0,0-3.79.6,9.27,9.27,0,0,0-3.15,1.67l-2.09-3.9a13.18,13.18,0,0,1,4.32-2.1,19.42,19.42,0,0,1,5.35-.73C728.69,804.39,731.26,805.2,733.05,806.81ZM728.17,823a5,5,0,0,0,2.2-2.63v-2.65h-5.52q-4.62,0-4.62,3a2.72,2.72,0,0,0,1.15,2.31,5.3,5.3,0,0,0,3.21.85A6.87,6.87,0,0,0,728.17,823Z"/>
        <path class="cls-1" d="M762.48,806.92q2.61,2.52,2.61,7.49v13.1h-5.35V815.1a6.38,6.38,0,0,0-1.42-4.52,5.22,5.22,0,0,0-4-1.52,6.18,6.18,0,0,0-4.67,1.78,7.08,7.08,0,0,0-1.71,5.11v11.56h-5.35V804.65h5.1v3a8.26,8.26,0,0,1,3.33-2.4,12.12,12.12,0,0,1,4.54-.82A9.59,9.59,0,0,1,762.48,806.92Z"/>
        <path class="cls-1" d="M773.52,827.08a13.66,13.66,0,0,1-4.24-1.84l2.06-4.07a12.87,12.87,0,0,0,3.7,1.65,15.14,15.14,0,0,0,4.26.62c3.2,0,4.79-.84,4.79-2.52a1.68,1.68,0,0,0-1.22-1.67,20.92,20.92,0,0,0-3.91-.9,30.78,30.78,0,0,1-4.6-1,7.1,7.1,0,0,1-3.09-1.94,5.45,5.45,0,0,1-1.3-3.88,6.07,6.07,0,0,1,2.72-5.2,12.36,12.36,0,0,1,7.34-2,21,21,0,0,1,4.71.54,13.27,13.27,0,0,1,3.85,1.43l-2.06,4.07a12.68,12.68,0,0,0-6.55-1.71,7.25,7.25,0,0,0-3.57.7,2.14,2.14,0,0,0-1.22,1.87,1.86,1.86,0,0,0,1.31,1.82,20.89,20.89,0,0,0,4,1,31.88,31.88,0,0,1,4.5,1,7,7,0,0,1,3,1.88,5.26,5.26,0,0,1,1.27,3.77,5.94,5.94,0,0,1-2.79,5.13,13.05,13.05,0,0,1-7.57,1.93A20.27,20.27,0,0,1,773.52,827.08Z"/>
        <path class="cls-1" d="M814.91,804.65l-9.8,22.86h-5.52l-9.8-22.86h5.56l7.11,17,7.32-17Z"/>
        <path class="cls-1" d="M839,817.79H821.08a6.2,6.2,0,0,0,2.46,4,8.09,8.09,0,0,0,4.94,1.47,8.36,8.36,0,0,0,6.21-2.48l2.87,3.3a9.78,9.78,0,0,1-3.9,2.78,15.43,15.43,0,0,1-11.94-.56,10.81,10.81,0,0,1-4.43-4.17,12.6,12.6,0,0,1,0-12.07,10.78,10.78,0,0,1,4.21-4.18,12.31,12.31,0,0,1,6.08-1.5,12,12,0,0,1,6,1.48,10.45,10.45,0,0,1,4.11,4.15,12.57,12.57,0,0,1,1.48,6.19C839.1,816.58,839.07,817.11,839,817.79Zm-15.81-7.6a6.37,6.37,0,0,0-2.16,4h13a6.3,6.3,0,0,0-2.1-4,6.38,6.38,0,0,0-4.37-1.54A6.45,6.45,0,0,0,823.2,810.19Z"/>
        <path class="cls-1" d="M857.46,804.39v5.1a6.38,6.38,0,0,0-1.24-.13,6.48,6.48,0,0,0-4.88,1.82,7.24,7.24,0,0,0-1.75,5.24v11.09h-5.35V804.65h5.09V808Q851.64,804.39,857.46,804.39Z"/>
        <path class="cls-1" d="M863.71,827.08a13.48,13.48,0,0,1-4.23-1.84l2-4.07a13,13,0,0,0,3.7,1.65,15.14,15.14,0,0,0,4.26.62q4.8,0,4.8-2.52a1.69,1.69,0,0,0-1.22-1.67,21.07,21.07,0,0,0-3.92-.9,31.06,31.06,0,0,1-4.6-1,7.06,7.06,0,0,1-3.08-1.94,5.45,5.45,0,0,1-1.31-3.88,6.1,6.1,0,0,1,2.72-5.2,12.36,12.36,0,0,1,7.34-2,21,21,0,0,1,4.71.54,13.27,13.27,0,0,1,3.85,1.43l-2,4.07a12.7,12.7,0,0,0-6.55-1.71,7.32,7.32,0,0,0-3.58.7,2.14,2.14,0,0,0-1.22,1.87,1.87,1.87,0,0,0,1.31,1.82,21.09,21.09,0,0,0,4,1,31.88,31.88,0,0,1,4.5,1,7.12,7.12,0,0,1,3,1.88,5.25,5.25,0,0,1,1.26,3.77,6,6,0,0,1-2.78,5.13,13.09,13.09,0,0,1-7.58,1.93A20.27,20.27,0,0,1,863.71,827.08Z"/>
        <path class="cls-1" d="M900.59,806.81c1.78,1.62,2.68,4.05,2.68,7.3v13.4h-5v-2.78a6.28,6.28,0,0,1-2.81,2.29,10.9,10.9,0,0,1-4.39.79,10.64,10.64,0,0,1-4.49-.88,7,7,0,0,1-3-2.44,6.18,6.18,0,0,1-1-3.53A6,6,0,0,1,884.8,816c1.52-1.24,3.93-1.87,7.21-1.87h5.91v-.34a4.67,4.67,0,0,0-1.44-3.68,6.16,6.16,0,0,0-4.26-1.28,12.35,12.35,0,0,0-3.79.6,9.13,9.13,0,0,0-3.14,1.67l-2.1-3.9a13.18,13.18,0,0,1,4.32-2.1,19.48,19.48,0,0,1,5.35-.73Q897.92,804.39,900.59,806.81ZM895.71,823a5,5,0,0,0,2.21-2.63v-2.65h-5.53q-4.62,0-4.62,3a2.73,2.73,0,0,0,1.16,2.31,5.3,5.3,0,0,0,3.21.85A6.83,6.83,0,0,0,895.71,823Z"/>
        <path class="cls-1" d="M910.12,795.75h5.35v31.76h-5.35Z"/>
        <path class="cls-1" d="M951.59,810.15a8.64,8.64,0,0,1,5,8.07,9.09,9.09,0,0,1-1.45,5.12,9.67,9.67,0,0,1-3.94,3.4,12.64,12.64,0,0,1-5.57,1.2q-6.17,0-9.56-3.85T932.67,813a18.7,18.7,0,0,1,1.84-8.62,12.75,12.75,0,0,1,5.16-5.44,15.44,15.44,0,0,1,7.69-1.86,18.32,18.32,0,0,1,4.34.49,12,12,0,0,1,3.53,1.43l-2.05,4.2a10.24,10.24,0,0,0-5.7-1.46,8.73,8.73,0,0,0-6.76,2.66q-2.44,2.65-2.44,7.66v0a8.37,8.37,0,0,1,3.38-2.33,12.74,12.74,0,0,1,4.63-.79A12.15,12.15,0,0,1,951.59,810.15Zm-2,12a5,5,0,0,0,0-7.43,6.56,6.56,0,0,0-4.36-1.37,6.48,6.48,0,0,0-4.39,1.46,4.64,4.64,0,0,0-1.69,3.68,4.59,4.59,0,0,0,1.65,3.62,6.71,6.71,0,0,0,4.55,1.43A6.28,6.28,0,0,0,949.58,822.18Z"/>
        <path class="cls-1" d="M965.59,826.12a12.24,12.24,0,0,1-4.45-5.31,21.87,21.87,0,0,1,0-16.57,12.27,12.27,0,0,1,4.45-5.3,12.27,12.27,0,0,1,12.86,0,12.26,12.26,0,0,1,4.48,5.3,22,22,0,0,1,0,16.57,12.23,12.23,0,0,1-4.48,5.31,12.27,12.27,0,0,1-12.86,0Zm11.49-5.67q1.88-2.66,1.87-7.92t-1.87-7.92a6.12,6.12,0,0,0-10.1,0q-1.86,2.65-1.86,7.92t1.86,7.92a6.14,6.14,0,0,0,10.1,0Z"/>
        <path class="cls-1" d="M1020.51,816.34h5.78v3.89H1020l-.9,7.28h-3.89l.89-7.28h-7.23l-.9,7.28h-3.89l.89-7.28h-5.77v-3.89h6.25l1-7.62h-5.78v-3.9h6.25l.9-7.27h3.9l-.9,7.27H1018l.9-7.27h3.89l-.9,7.27h5.74l0,3.9h-6.25Zm-3.89,0,.94-7.62h-7.19l-1,7.62Z"/>
        <path class="cls-1" d="M1040.93,797.55v30h-5.57v-25.3H1029v-4.66Z"/>
        <path class="cls-1" d="M1068.58,822.8v4.71h-22.09v-3.72l11.9-11.31a12.75,12.75,0,0,0,2.72-3.36,6.38,6.38,0,0,0,.71-2.84,3.84,3.84,0,0,0-1.41-3.21,6.65,6.65,0,0,0-4.16-1.12,8.4,8.4,0,0,0-7,3.13l-3.89-3a11.49,11.49,0,0,1,4.73-3.66,16.37,16.37,0,0,1,6.65-1.3,12.22,12.22,0,0,1,7.8,2.31,7.6,7.6,0,0,1,2.91,6.29,10.49,10.49,0,0,1-1,4.58,17.86,17.86,0,0,1-3.94,4.88l-8,7.62Z"/>
        <path class="cls-1" d="M1077.74,826.12a12.24,12.24,0,0,1-4.45-5.31,21.87,21.87,0,0,1,0-16.57,12.27,12.27,0,0,1,4.45-5.3,12.29,12.29,0,0,1,12.87,0,12.31,12.31,0,0,1,4.47,5.3,21.87,21.87,0,0,1,0,16.57,12.28,12.28,0,0,1-4.47,5.31,12.29,12.29,0,0,1-12.87,0Zm11.5-5.67q1.86-2.66,1.86-7.92t-1.86-7.92a5.9,5.9,0,0,0-5.08-2.66,5.84,5.84,0,0,0-5,2.66q-1.86,2.65-1.86,7.92t1.86,7.92a5.83,5.83,0,0,0,5,2.65A5.9,5.9,0,0,0,1089.24,820.45Z"/>
        <path class="cls-1" d="M1101.16,813.38h11.77v4.46h-11.77Z"/>
        <path class="cls-1" d="M1123.46,826.12a12.17,12.17,0,0,1-4.45-5.31,21.87,21.87,0,0,1,0-16.57,12.2,12.2,0,0,1,4.45-5.3,12.27,12.27,0,0,1,12.86,0,12.17,12.17,0,0,1,4.47,5.3,21.87,21.87,0,0,1,0,16.57,12.15,12.15,0,0,1-4.47,5.31,12.27,12.27,0,0,1-12.86,0Zm11.49-5.67q1.86-2.66,1.86-7.92t-1.86-7.92a6.12,6.12,0,0,0-10.1,0q-1.86,2.65-1.86,7.92t1.86,7.92a6.14,6.14,0,0,0,10.1,0Z"/>
        <path class="cls-1" d="M1164.85,812.74a8.07,8.07,0,0,1,2.18,5.78,8.85,8.85,0,0,1-1.32,4.75,9.21,9.21,0,0,1-4,3.41,15.27,15.27,0,0,1-6.53,1.26A20.94,20.94,0,0,1,1149,827a15.88,15.88,0,0,1-5.07-2.55l2.4-4.32a12.12,12.12,0,0,0,4,2.16,14.79,14.79,0,0,0,4.81.79,7.85,7.85,0,0,0,4.65-1.22,3.89,3.89,0,0,0,1.69-3.32,3.83,3.83,0,0,0-1.61-3.27,8.25,8.25,0,0,0-4.9-1.18h-2.74V810.3l6.81-8.09h-13.62v-4.66h20.42v3.72l-7.27,8.65A10.08,10.08,0,0,1,1164.85,812.74Z"/>
        <path class="cls-1" d="M681.53,838h3.17v27.22h16.78V868h-20Z"/>
        <path class="cls-1" d="M720.83,847.48c1.56,1.47,2.35,3.65,2.35,6.53v14h-2.91v-3.51a7,7,0,0,1-3,2.74,10.51,10.51,0,0,1-4.73,1,9.24,9.24,0,0,1-6-1.8,6.18,6.18,0,0,1-.15-9.38c1.38-1.17,3.59-1.75,6.61-1.75h7.15v-1.37a5.75,5.75,0,0,0-1.63-4.43,6.71,6.71,0,0,0-4.75-1.52,11.93,11.93,0,0,0-4.11.71,10.46,10.46,0,0,0-3.38,1.94l-1.37-2.27a12.14,12.14,0,0,1,4.11-2.24,15.94,15.94,0,0,1,5-.8Q718.47,845.27,720.83,847.48ZM717.4,864.6a7,7,0,0,0,2.74-3.4v-3.68h-7.06q-5.77,0-5.78,4a3.67,3.67,0,0,0,1.5,3.1,6.78,6.78,0,0,0,4.19,1.14A8,8,0,0,0,717.4,864.6Z"/>
        <path class="cls-1" d="M752.37,845.45v19.77q0,5.74-2.8,8.5t-8.45,2.76a19,19,0,0,1-5.93-.92,12.07,12.07,0,0,1-4.56-2.55l1.54-2.31a11.45,11.45,0,0,0,4,2.27,14.82,14.82,0,0,0,4.9.81q4.28,0,6.29-2c1.34-1.32,2-3.39,2-6.18v-2.87a9.08,9.08,0,0,1-3.7,3.25,11.36,11.36,0,0,1-5.07,1.12,12,12,0,0,1-5.76-1.4,10.14,10.14,0,0,1-4.06-3.89,10.9,10.9,0,0,1-1.48-5.67,10.78,10.78,0,0,1,1.48-5.65,10.21,10.21,0,0,1,4-3.86,12.12,12.12,0,0,1,5.78-1.37,11.43,11.43,0,0,1,5.18,1.16,9.28,9.28,0,0,1,3.72,3.34v-4.32Zm-7.1,17.91a7.64,7.64,0,0,0,3.06-2.93,8.36,8.36,0,0,0,1.09-4.28,8.24,8.24,0,0,0-1.09-4.26,7.67,7.67,0,0,0-3-2.91,9.87,9.87,0,0,0-8.82,0,7.41,7.41,0,0,0-3,2.91,8.95,8.95,0,0,0,0,8.56,7.66,7.66,0,0,0,3,2.93,9.1,9.1,0,0,0,4.39,1A9.24,9.24,0,0,0,745.27,863.36Z"/>
        <path class="cls-1" d="M764.23,866.7a10.83,10.83,0,0,1-4.11-4.09,12.37,12.37,0,0,1,0-11.81,10.64,10.64,0,0,1,4.11-4.07,12.51,12.51,0,0,1,11.73,0,10.53,10.53,0,0,1,4.09,4.07,12.6,12.6,0,0,1,0,11.81A10.71,10.71,0,0,1,776,866.7a12.36,12.36,0,0,1-11.73,0Zm10.17-2.31a7.55,7.55,0,0,0,3-3.11,10.34,10.34,0,0,0,0-9.16,7.59,7.59,0,0,0-3-3.1,9,9,0,0,0-8.61,0,7.7,7.7,0,0,0-3,3.1,10.08,10.08,0,0,0,0,9.16,7.66,7.66,0,0,0,3,3.11,9,9,0,0,0,8.61,0Z"/>
        <path class="cls-1" d="M788.52,867.38a11.07,11.07,0,0,1-3.91-2L786,863a11.71,11.71,0,0,0,3.55,1.82,14.14,14.14,0,0,0,4.45.7,8.51,8.51,0,0,0,4.56-1,3.08,3.08,0,0,0,1.48-2.72,2.42,2.42,0,0,0-.82-2,5.46,5.46,0,0,0-2.05-1.07,30.73,30.73,0,0,0-3.3-.7,41.75,41.75,0,0,1-4.41-1,6.53,6.53,0,0,1-2.84-1.82,5,5,0,0,1-1.18-3.55,5.57,5.57,0,0,1,2.35-4.63,10.58,10.58,0,0,1,6.55-1.8,17.27,17.27,0,0,1,4.37.58,12.15,12.15,0,0,1,3.6,1.52L801,849.81a11.42,11.42,0,0,0-6.64-1.92,7.7,7.7,0,0,0-4.38,1,3.15,3.15,0,0,0-1.48,2.7,2.66,2.66,0,0,0,.83,2,5.06,5.06,0,0,0,2.08,1.14q1.25.36,3.42.75a37.47,37.47,0,0,1,4.33,1,6.31,6.31,0,0,1,2.78,1.75,4.84,4.84,0,0,1,1.16,3.43,5.42,5.42,0,0,1-2.47,4.68,11.64,11.64,0,0,1-6.82,1.74A17.25,17.25,0,0,1,788.52,867.38Z"/>
        <path class="cls-1" d="M840.43,836.2V868h-2.92v-4.45A9.25,9.25,0,0,1,833.9,867a10.62,10.62,0,0,1-5.08,1.2,11.41,11.41,0,0,1-5.73-1.46,10.35,10.35,0,0,1-4-4.07,12.85,12.85,0,0,1,0-11.9,10.21,10.21,0,0,1,4-4,11.5,11.5,0,0,1,5.73-1.44,10.62,10.62,0,0,1,4.95,1.14,9.43,9.43,0,0,1,3.62,3.32V836.2Zm-7.09,28.19a7.75,7.75,0,0,0,3-3.11,10.17,10.17,0,0,0,0-9.16,7.79,7.79,0,0,0-3-3.1,8.95,8.95,0,0,0-8.56,0,7.79,7.79,0,0,0-3,3.1,10.17,10.17,0,0,0,0,9.16,7.75,7.75,0,0,0,3,3.11,8.95,8.95,0,0,0,8.56,0Z"/>
        <path class="cls-1" d="M868.51,857.65H849.67a8,8,0,0,0,2.7,5.67,8.94,8.94,0,0,0,6.16,2.16,9.68,9.68,0,0,0,3.85-.75,8.37,8.37,0,0,0,3-2.2l1.72,2a9.56,9.56,0,0,1-3.75,2.74,13.43,13.43,0,0,1-11.09-.53,10.72,10.72,0,0,1-4.17-4.09,11.65,11.65,0,0,1-1.5-5.91,12,12,0,0,1,1.44-5.9,10.33,10.33,0,0,1,3.93-4.07,11,11,0,0,1,5.63-1.46,10.86,10.86,0,0,1,5.61,1.46,10.34,10.34,0,0,1,3.9,4,12.16,12.16,0,0,1,1.41,5.92ZM852.18,850a8.18,8.18,0,0,0-2.51,5.42h16a8.18,8.18,0,0,0-2.51-5.42,8.28,8.28,0,0,0-11,0Z"/>
        <path class="cls-1" d="M891.6,866.25a14.43,14.43,0,0,1-5.61-5.46,16,16,0,0,1,0-15.62,14.35,14.35,0,0,1,5.63-5.46,16.52,16.52,0,0,1,8-2,16.7,16.7,0,0,1,6.16,1.11,12.88,12.88,0,0,1,4.8,3.26l-2,2a11.92,11.92,0,0,0-8.86-3.55,13,13,0,0,0-6.46,1.62,12,12,0,0,0-4.56,4.45,13,13,0,0,0,0,12.68,12,12,0,0,0,4.56,4.45,13,13,0,0,0,6.46,1.62,11.75,11.75,0,0,0,8.86-3.59l2,2a12.89,12.89,0,0,1-4.82,3.27,17.34,17.34,0,0,1-14.21-.83Z"/>
        <path class="cls-1" d="M919.1,866.7a10.83,10.83,0,0,1-4.11-4.09,12.37,12.37,0,0,1,0-11.81,10.64,10.64,0,0,1,4.11-4.07,12.51,12.51,0,0,1,11.73,0,10.53,10.53,0,0,1,4.09,4.07,12.52,12.52,0,0,1,0,11.81,10.71,10.71,0,0,1-4.09,4.09,12.36,12.36,0,0,1-11.73,0Zm10.17-2.31a7.55,7.55,0,0,0,3-3.11,10.34,10.34,0,0,0,0-9.16,7.59,7.59,0,0,0-3-3.1,9,9,0,0,0-8.61,0,7.76,7.76,0,0,0-3,3.1,10.17,10.17,0,0,0,0,9.16,7.73,7.73,0,0,0,3,3.11,9,9,0,0,0,8.61,0ZM928,836.63h4.06l-6.93,5.31h-3Z"/>
        <path class="cls-1" d="M948.7,846.43a10.87,10.87,0,0,1,5.25-1.16v3l-.73,0a7.2,7.2,0,0,0-5.57,2.18,8.68,8.68,0,0,0-2,6.12V868h-3V845.45h2.91v4.41A7.39,7.39,0,0,1,948.7,846.43Z"/>
        <path class="cls-1" d="M979.76,836.2V868h-2.91v-4.45a9.34,9.34,0,0,1-3.62,3.47,10.6,10.6,0,0,1-5.07,1.2,11.45,11.45,0,0,1-5.74-1.46,10.42,10.42,0,0,1-4-4.07,12.85,12.85,0,0,1,0-11.9,10.28,10.28,0,0,1,4-4,11.54,11.54,0,0,1,5.74-1.44,10.61,10.61,0,0,1,4.94,1.14,9.36,9.36,0,0,1,3.62,3.32V836.2Zm-7.09,28.19a7.75,7.75,0,0,0,3-3.11,10.17,10.17,0,0,0,0-9.16,7.79,7.79,0,0,0-3-3.1,8.38,8.38,0,0,0-4.25-1.09,8.5,8.5,0,0,0-4.31,1.09,7.7,7.7,0,0,0-3,3.1,10.17,10.17,0,0,0,0,9.16,7.66,7.66,0,0,0,3,3.11,8.5,8.5,0,0,0,4.31,1.09A8.38,8.38,0,0,0,972.67,864.39Z"/>
        <path class="cls-1" d="M991.57,866.7a10.83,10.83,0,0,1-4.11-4.09,12.45,12.45,0,0,1,0-11.81,10.64,10.64,0,0,1,4.11-4.07,12.51,12.51,0,0,1,11.73,0,10.46,10.46,0,0,1,4.09,4.07,12.52,12.52,0,0,1,0,11.81,10.64,10.64,0,0,1-4.09,4.09,12.36,12.36,0,0,1-11.73,0Zm10.17-2.31a7.55,7.55,0,0,0,3-3.11,10.34,10.34,0,0,0,0-9.16,7.59,7.59,0,0,0-3-3.1,9,9,0,0,0-8.6,0,7.79,7.79,0,0,0-3,3.1,10.17,10.17,0,0,0,0,9.16,7.75,7.75,0,0,0,3,3.11,9,9,0,0,0,8.6,0Z"/>
        <path class="cls-1" d="M1032.41,846.71a10.28,10.28,0,0,1,4,4,12.85,12.85,0,0,1,0,11.9,10.42,10.42,0,0,1-4,4.07,11.42,11.42,0,0,1-5.74,1.46,10.6,10.6,0,0,1-5.07-1.2,9.34,9.34,0,0,1-3.62-3.47V868h-2.91V836.2h3v13.53a9.36,9.36,0,0,1,3.62-3.32,10.61,10.61,0,0,1,4.94-1.14A11.51,11.51,0,0,1,1032.41,846.71Zm-1.67,17.68a7.67,7.67,0,0,0,3-3.11,10.17,10.17,0,0,0,0-9.16,7.71,7.71,0,0,0-3-3.1,9,9,0,0,0-8.58,0,7.79,7.79,0,0,0-3,3.1,10.17,10.17,0,0,0,0,9.16,7.75,7.75,0,0,0,3,3.11,9,9,0,0,0,8.58,0Z"/>
        <path class="cls-1" d="M1058.61,847.48q2.36,2.21,2.35,6.53v14h-2.91v-3.51a6.89,6.89,0,0,1-3,2.74,10.48,10.48,0,0,1-4.73,1,9.24,9.24,0,0,1-6-1.8,6.18,6.18,0,0,1-.15-9.38c1.38-1.17,3.59-1.75,6.61-1.75h7.15v-1.37a5.78,5.78,0,0,0-1.62-4.43,6.75,6.75,0,0,0-4.76-1.52,11.83,11.83,0,0,0-4.1.71,10.51,10.51,0,0,0-3.39,1.94l-1.37-2.27a12.14,12.14,0,0,1,4.11-2.24,15.94,15.94,0,0,1,5-.8Q1056.25,845.27,1058.61,847.48Zm-3.43,17.12a7,7,0,0,0,2.74-3.4v-3.68h-7.06q-5.77,0-5.78,4a3.67,3.67,0,0,0,1.5,3.1,6.8,6.8,0,0,0,4.19,1.14A7.94,7.94,0,0,0,1055.18,864.6Z"/>
      </g>
    </g>
  </g>
</svg>
